# Blender 5.0.1
# www.blender.org
mtllib donut.mtl
o Torus
v 0.500000 0.000000 0.000000
v 0.482633 0.062500 0.000000
v 0.435185 0.108253 0.000000
v 0.370370 0.125000 0.000000
v 0.305556 0.108253 0.000000
v 0.258108 0.062500 0.000000
v 0.240741 0.000000 0.000000
v 0.258108 -0.062500 0.000000
v 0.305556 -0.108253 0.000000
v 0.370370 -0.125000 0.000000
v 0.435185 -0.108253 0.000000
v 0.482633 -0.062500 0.000000
v 0.495722 0.000000 -0.065263
v 0.478504 0.062500 -0.062996
v 0.431462 0.108253 -0.056803
v 0.367202 0.125000 -0.048343
v 0.302941 0.108253 -0.039883
v 0.255900 0.062500 -0.033690
v 0.238681 0.000000 -0.031423
v 0.255900 -0.062500 -0.033690
v 0.302941 -0.108253 -0.039883
v 0.367202 -0.125000 -0.048343
v 0.431462 -0.108253 -0.056803
v 0.478504 -0.062500 -0.062996
v 0.482963 0.000000 -0.129409
v 0.466188 0.062500 -0.124915
v 0.420357 0.108253 -0.112634
v 0.357750 0.125000 -0.095859
v 0.295144 0.108253 -0.079084
v 0.249313 0.062500 -0.066803
v 0.232538 0.000000 -0.062308
v 0.249313 -0.062500 -0.066803
v 0.295144 -0.108253 -0.079084
v 0.357750 -0.125000 -0.095859
v 0.420357 -0.108253 -0.112634
v 0.466188 -0.062500 -0.124915
v 0.461940 0.000000 -0.191342
v 0.445895 0.062500 -0.184696
v 0.402059 0.108253 -0.166538
v 0.342178 0.125000 -0.141735
v 0.282297 0.108253 -0.116931
v 0.238461 0.062500 -0.098774
v 0.222415 0.000000 -0.092127
v 0.238461 -0.062500 -0.098774
v 0.282297 -0.108253 -0.116931
v 0.342178 -0.125000 -0.141735
v 0.402059 -0.108253 -0.166538
v 0.445895 -0.062500 -0.184696
v 0.433013 0.000000 -0.250000
v 0.417972 0.062500 -0.241317
v 0.376881 0.108253 -0.217593
v 0.320750 0.125000 -0.185185
v 0.264619 0.108253 -0.152778
v 0.223528 0.062500 -0.129054
v 0.208488 0.000000 -0.120370
v 0.223528 -0.062500 -0.129054
v 0.264619 -0.108253 -0.152778
v 0.320750 -0.125000 -0.185185
v 0.376881 -0.108253 -0.217593
v 0.417972 -0.062500 -0.241317
v 0.396677 0.000000 -0.304381
v 0.382899 0.062500 -0.293808
v 0.345256 0.108253 -0.264924
v 0.293835 0.125000 -0.225467
v 0.242414 0.108253 -0.186010
v 0.204771 0.062500 -0.157126
v 0.190992 0.000000 -0.146554
v 0.204771 -0.062500 -0.157126
v 0.242414 -0.108253 -0.186010
v 0.293835 -0.125000 -0.225467
v 0.345256 -0.108253 -0.264924
v 0.382899 -0.062500 -0.293808
v 0.353553 0.000000 -0.353553
v 0.341273 0.062500 -0.341273
v 0.307722 0.108253 -0.307722
v 0.261891 0.125000 -0.261891
v 0.216060 0.108253 -0.216060
v 0.182510 0.062500 -0.182510
v 0.170229 0.000000 -0.170229
v 0.182510 -0.062500 -0.182510
v 0.216060 -0.108253 -0.216060
v 0.261891 -0.125000 -0.261891
v 0.307722 -0.108253 -0.307722
v 0.341273 -0.062500 -0.341273
v 0.304381 0.000000 -0.396677
v 0.293808 0.062500 -0.382898
v 0.264924 0.108253 -0.345256
v 0.225467 0.125000 -0.293835
v 0.186010 0.108253 -0.242413
v 0.157126 0.062500 -0.204771
v 0.146554 0.000000 -0.190992
v 0.157126 -0.062500 -0.204771
v 0.186010 -0.108253 -0.242413
v 0.225467 -0.125000 -0.293835
v 0.264924 -0.108253 -0.345256
v 0.293808 -0.062500 -0.382898
v 0.250000 0.000000 -0.433013
v 0.241316 0.062500 -0.417972
v 0.217593 0.108253 -0.376881
v 0.185185 0.125000 -0.320750
v 0.152778 0.108253 -0.264619
v 0.129054 0.062500 -0.223528
v 0.120370 0.000000 -0.208488
v 0.129054 -0.062500 -0.223528
v 0.152778 -0.108253 -0.264619
v 0.185185 -0.125000 -0.320750
v 0.217593 -0.108253 -0.376881
v 0.241316 -0.062500 -0.417972
v 0.191342 0.000000 -0.461940
v 0.184696 0.062500 -0.445895
v 0.166538 0.108253 -0.402059
v 0.141735 0.125000 -0.342178
v 0.116931 0.108253 -0.282296
v 0.098774 0.062500 -0.238461
v 0.092128 0.000000 -0.222415
v 0.098774 -0.062500 -0.238461
v 0.116931 -0.108253 -0.282296
v 0.141735 -0.125000 -0.342178
v 0.166538 -0.108253 -0.402059
v 0.184696 -0.062500 -0.445895
v 0.129410 0.000000 -0.482963
v 0.124915 0.062500 -0.466188
v 0.112634 0.108253 -0.420357
v 0.095859 0.125000 -0.357750
v 0.079084 0.108253 -0.295144
v 0.066803 0.062500 -0.249313
v 0.062308 0.000000 -0.232538
v 0.066803 -0.062500 -0.249313
v 0.079084 -0.108253 -0.295144
v 0.095859 -0.125000 -0.357750
v 0.112634 -0.108253 -0.420357
v 0.124915 -0.062500 -0.466188
v 0.065263 0.000000 -0.495722
v 0.062996 0.062500 -0.478504
v 0.056803 0.108253 -0.431462
v 0.048343 0.125000 -0.367202
v 0.039883 0.108253 -0.302941
v 0.033690 0.062500 -0.255900
v 0.031423 0.000000 -0.238681
v 0.033690 -0.062500 -0.255900
v 0.039883 -0.108253 -0.302941
v 0.048343 -0.125000 -0.367202
v 0.056803 -0.108253 -0.431462
v 0.062996 -0.062500 -0.478504
v 0.000000 0.000000 -0.500000
v 0.000000 0.062500 -0.482633
v 0.000000 0.108253 -0.435185
v 0.000000 0.125000 -0.370370
v 0.000000 0.108253 -0.305556
v 0.000000 0.062500 -0.258108
v 0.000000 0.000000 -0.240741
v 0.000000 -0.062500 -0.258108
v 0.000000 -0.108253 -0.305556
v 0.000000 -0.125000 -0.370370
v 0.000000 -0.108253 -0.435185
v 0.000000 -0.062500 -0.482633
v -0.065263 0.000000 -0.495722
v -0.062996 0.062500 -0.478504
v -0.056803 0.108253 -0.431462
v -0.048343 0.125000 -0.367202
v -0.039883 0.108253 -0.302941
v -0.033690 0.062500 -0.255900
v -0.031423 0.000000 -0.238681
v -0.033690 -0.062500 -0.255900
v -0.039883 -0.108253 -0.302941
v -0.048343 -0.125000 -0.367202
v -0.056803 -0.108253 -0.431462
v -0.062996 -0.062500 -0.478504
v -0.129409 0.000000 -0.482963
v -0.124915 0.062500 -0.466188
v -0.112634 0.108253 -0.420357
v -0.095859 0.125000 -0.357750
v -0.079084 0.108253 -0.295144
v -0.066803 0.062500 -0.249313
v -0.062308 0.000000 -0.232538
v -0.066803 -0.062500 -0.249313
v -0.079084 -0.108253 -0.295144
v -0.095859 -0.125000 -0.357750
v -0.112634 -0.108253 -0.420357
v -0.124915 -0.062500 -0.466188
v -0.191342 0.000000 -0.461940
v -0.184696 0.062500 -0.445895
v -0.166538 0.108253 -0.402059
v -0.141735 0.125000 -0.342178
v -0.116931 0.108253 -0.282297
v -0.098774 0.062500 -0.238461
v -0.092128 0.000000 -0.222415
v -0.098774 -0.062500 -0.238461
v -0.116931 -0.108253 -0.282297
v -0.141735 -0.125000 -0.342178
v -0.166538 -0.108253 -0.402059
v -0.184696 -0.062500 -0.445895
v -0.250000 0.000000 -0.433013
v -0.241316 0.062500 -0.417972
v -0.217593 0.108253 -0.376881
v -0.185185 0.125000 -0.320750
v -0.152778 0.108253 -0.264619
v -0.129054 0.062500 -0.223528
v -0.120370 0.000000 -0.208488
v -0.129054 -0.062500 -0.223528
v -0.152778 -0.108253 -0.264619
v -0.185185 -0.125000 -0.320750
v -0.217593 -0.108253 -0.376881
v -0.241316 -0.062500 -0.417972
v -0.304381 0.000000 -0.396677
v -0.293808 0.062500 -0.382898
v -0.264924 0.108253 -0.345256
v -0.225467 0.125000 -0.293835
v -0.186010 0.108253 -0.242413
v -0.157126 0.062500 -0.204771
v -0.146554 0.000000 -0.190992
v -0.157126 -0.062500 -0.204771
v -0.186010 -0.108253 -0.242413
v -0.225467 -0.125000 -0.293835
v -0.264924 -0.108253 -0.345256
v -0.293808 -0.062500 -0.382898
v -0.353553 0.000000 -0.353553
v -0.341273 0.062500 -0.341273
v -0.307722 0.108253 -0.307722
v -0.261891 0.125000 -0.261891
v -0.216060 0.108253 -0.216060
v -0.182510 0.062500 -0.182510
v -0.170229 0.000000 -0.170229
v -0.182510 -0.062500 -0.182510
v -0.216060 -0.108253 -0.216060
v -0.261891 -0.125000 -0.261891
v -0.307722 -0.108253 -0.307722
v -0.341273 -0.062500 -0.341273
v -0.396677 0.000000 -0.304381
v -0.382898 0.062500 -0.293808
v -0.345256 0.108253 -0.264924
v -0.293835 0.125000 -0.225467
v -0.242413 0.108253 -0.186010
v -0.204771 0.062500 -0.157126
v -0.190992 0.000000 -0.146554
v -0.204771 -0.062500 -0.157126
v -0.242413 -0.108253 -0.186010
v -0.293835 -0.125000 -0.225467
v -0.345256 -0.108253 -0.264924
v -0.382898 -0.062500 -0.293808
v -0.433013 0.000000 -0.250000
v -0.417972 0.062500 -0.241317
v -0.376881 0.108253 -0.217593
v -0.320750 0.125000 -0.185185
v -0.264619 0.108253 -0.152778
v -0.223528 0.062500 -0.129054
v -0.208488 0.000000 -0.120370
v -0.223528 -0.062500 -0.129054
v -0.264619 -0.108253 -0.152778
v -0.320750 -0.125000 -0.185185
v -0.376881 -0.108253 -0.217593
v -0.417972 -0.062500 -0.241317
v -0.461940 0.000000 -0.191342
v -0.445895 0.062500 -0.184696
v -0.402059 0.108253 -0.166538
v -0.342178 0.125000 -0.141735
v -0.282297 0.108253 -0.116931
v -0.238461 0.062500 -0.098774
v -0.222415 0.000000 -0.092127
v -0.238461 -0.062500 -0.098774
v -0.282297 -0.108253 -0.116931
v -0.342178 -0.125000 -0.141735
v -0.402059 -0.108253 -0.166538
v -0.445895 -0.062500 -0.184696
v -0.482963 0.000000 -0.129409
v -0.466188 0.062500 -0.124915
v -0.420357 0.108253 -0.112634
v -0.357750 0.125000 -0.095859
v -0.295144 0.108253 -0.079084
v -0.249313 0.062500 -0.066803
v -0.232538 0.000000 -0.062308
v -0.249313 -0.062500 -0.066803
v -0.295144 -0.108253 -0.079084
v -0.357750 -0.125000 -0.095859
v -0.420357 -0.108253 -0.112634
v -0.466188 -0.062500 -0.124915
v -0.495722 0.000000 -0.065263
v -0.478504 0.062500 -0.062996
v -0.431462 0.108253 -0.056803
v -0.367202 0.125000 -0.048343
v -0.302941 0.108253 -0.039883
v -0.255900 0.062500 -0.033690
v -0.238681 0.000000 -0.031423
v -0.255900 -0.062500 -0.033690
v -0.302941 -0.108253 -0.039883
v -0.367202 -0.125000 -0.048343
v -0.431462 -0.108253 -0.056803
v -0.478504 -0.062500 -0.062996
v -0.500000 0.000000 -0.000000
v -0.482633 0.062500 -0.000000
v -0.435185 0.108253 -0.000000
v -0.370370 0.125000 -0.000000
v -0.305556 0.108253 -0.000000
v -0.258108 0.062500 -0.000000
v -0.240741 0.000000 -0.000000
v -0.258108 -0.062500 -0.000000
v -0.305556 -0.108253 -0.000000
v -0.370370 -0.125000 -0.000000
v -0.435185 -0.108253 -0.000000
v -0.482633 -0.062500 -0.000000
v -0.495722 0.000000 0.065263
v -0.478504 0.062500 0.062996
v -0.431462 0.108253 0.056803
v -0.367202 0.125000 0.048343
v -0.302941 0.108253 0.039883
v -0.255900 0.062500 0.033690
v -0.238681 0.000000 0.031423
v -0.255900 -0.062500 0.033690
v -0.302941 -0.108253 0.039883
v -0.367202 -0.125000 0.048343
v -0.431462 -0.108253 0.056803
v -0.478504 -0.062500 0.062996
v -0.482963 0.000000 0.129409
v -0.466188 0.062500 0.124915
v -0.420357 0.108253 0.112634
v -0.357750 0.125000 0.095859
v -0.295144 0.108253 0.079084
v -0.249313 0.062500 0.066803
v -0.232538 0.000000 0.062308
v -0.249313 -0.062500 0.066803
v -0.295144 -0.108253 0.079084
v -0.357750 -0.125000 0.095859
v -0.420357 -0.108253 0.112634
v -0.466188 -0.062500 0.124915
v -0.461940 0.000000 0.191342
v -0.445895 0.062500 0.184695
v -0.402059 0.108253 0.166538
v -0.342178 0.125000 0.141734
v -0.282297 0.108253 0.116931
v -0.238461 0.062500 0.098773
v -0.222415 0.000000 0.092127
v -0.238461 -0.062500 0.098773
v -0.282297 -0.108253 0.116931
v -0.342178 -0.125000 0.141734
v -0.402059 -0.108253 0.166538
v -0.445895 -0.062500 0.184695
v -0.433013 0.000000 0.250000
v -0.417972 0.062500 0.241316
v -0.376881 0.108253 0.217592
v -0.320750 0.125000 0.185185
v -0.264619 0.108253 0.152778
v -0.223528 0.062500 0.129054
v -0.208488 0.000000 0.120370
v -0.223528 -0.062500 0.129054
v -0.264619 -0.108253 0.152778
v -0.320750 -0.125000 0.185185
v -0.376881 -0.108253 0.217592
v -0.417972 -0.062500 0.241316
v -0.396677 0.000000 0.304381
v -0.382898 0.062500 0.293808
v -0.345256 0.108253 0.264924
v -0.293835 0.125000 0.225467
v -0.242413 0.108253 0.186010
v -0.204771 0.062500 0.157126
v -0.190992 0.000000 0.146554
v -0.204771 -0.062500 0.157126
v -0.242413 -0.108253 0.186010
v -0.293835 -0.125000 0.225467
v -0.345256 -0.108253 0.264924
v -0.382898 -0.062500 0.293808
v -0.353553 0.000000 0.353553
v -0.341273 0.062500 0.341273
v -0.307722 0.108253 0.307722
v -0.261891 0.125000 0.261891
v -0.216060 0.108253 0.216060
v -0.182510 0.062500 0.182510
v -0.170229 0.000000 0.170229
v -0.182510 -0.062500 0.182510
v -0.216060 -0.108253 0.216060
v -0.261891 -0.125000 0.261891
v -0.307722 -0.108253 0.307722
v -0.341273 -0.062500 0.341273
v -0.304381 0.000000 0.396676
v -0.293808 0.062500 0.382898
v -0.264924 0.108253 0.345255
v -0.225467 0.125000 0.293834
v -0.186011 0.108253 0.242413
v -0.157126 0.062500 0.204771
v -0.146554 0.000000 0.190992
v -0.157126 -0.062500 0.204771
v -0.186011 -0.108253 0.242413
v -0.225467 -0.125000 0.293834
v -0.264924 -0.108253 0.345255
v -0.293808 -0.062500 0.382898
v -0.250000 0.000000 0.433013
v -0.241316 0.062500 0.417972
v -0.217593 0.108253 0.376881
v -0.185185 0.125000 0.320750
v -0.152778 0.108253 0.264619
v -0.129054 0.062500 0.223528
v -0.120370 0.000000 0.208488
v -0.129054 -0.062500 0.223528
v -0.152778 -0.108253 0.264619
v -0.185185 -0.125000 0.320750
v -0.217593 -0.108253 0.376881
v -0.241316 -0.062500 0.417972
v -0.191342 0.000000 0.461940
v -0.184696 0.062500 0.445895
v -0.166538 0.108253 0.402059
v -0.141735 0.125000 0.342178
v -0.116931 0.108253 0.282297
v -0.098774 0.062500 0.238461
v -0.092128 0.000000 0.222415
v -0.098774 -0.062500 0.238461
v -0.116931 -0.108253 0.282297
v -0.141735 -0.125000 0.342178
v -0.166538 -0.108253 0.402059
v -0.184696 -0.062500 0.445895
v -0.129410 0.000000 0.482963
v -0.124915 0.062500 0.466188
v -0.112634 0.108253 0.420357
v -0.095859 0.125000 0.357750
v -0.079084 0.108253 0.295144
v -0.066803 0.062500 0.249313
v -0.062308 0.000000 0.232538
v -0.066803 -0.062500 0.249313
v -0.079084 -0.108253 0.295144
v -0.095859 -0.125000 0.357750
v -0.112634 -0.108253 0.420357
v -0.124915 -0.062500 0.466188
v -0.065263 0.000000 0.495722
v -0.062997 0.062500 0.478504
v -0.056803 0.108253 0.431462
v -0.048343 0.125000 0.367202
v -0.039883 0.108253 0.302941
v -0.033690 0.062500 0.255900
v -0.031423 0.000000 0.238681
v -0.033690 -0.062500 0.255900
v -0.039883 -0.108253 0.302941
v -0.048343 -0.125000 0.367202
v -0.056803 -0.108253 0.431462
v -0.062997 -0.062500 0.478504
v 0.000000 0.000000 0.500000
v 0.000000 0.062500 0.482633
v 0.000000 0.108253 0.435185
v 0.000000 0.125000 0.370370
v 0.000000 0.108253 0.305556
v 0.000000 0.062500 0.258108
v 0.000000 0.000000 0.240741
v 0.000000 -0.062500 0.258108
v 0.000000 -0.108253 0.305556
v 0.000000 -0.125000 0.370370
v 0.000000 -0.108253 0.435185
v 0.000000 -0.062500 0.482633
v 0.065263 0.000000 0.495722
v 0.062996 0.062500 0.478504
v 0.056803 0.108253 0.431462
v 0.048343 0.125000 0.367202
v 0.039883 0.108253 0.302941
v 0.033690 0.062500 0.255900
v 0.031423 0.000000 0.238681
v 0.033690 -0.062500 0.255900
v 0.039883 -0.108253 0.302941
v 0.048343 -0.125000 0.367202
v 0.056803 -0.108253 0.431462
v 0.062996 -0.062500 0.478504
v 0.129409 0.000000 0.482963
v 0.124914 0.062500 0.466188
v 0.112634 0.108253 0.420357
v 0.095859 0.125000 0.357750
v 0.079083 0.108253 0.295144
v 0.066803 0.062500 0.249313
v 0.062308 0.000000 0.232538
v 0.066803 -0.062500 0.249313
v 0.079083 -0.108253 0.295144
v 0.095859 -0.125000 0.357750
v 0.112634 -0.108253 0.420357
v 0.124914 -0.062500 0.466188
v 0.191342 0.000000 0.461940
v 0.184696 0.062500 0.445895
v 0.166538 0.108253 0.402059
v 0.141735 0.125000 0.342178
v 0.116931 0.108253 0.282296
v 0.098774 0.062500 0.238461
v 0.092128 0.000000 0.222415
v 0.098774 -0.062500 0.238461
v 0.116931 -0.108253 0.282296
v 0.141735 -0.125000 0.342178
v 0.166538 -0.108253 0.402059
v 0.184696 -0.062500 0.445895
v 0.250000 0.000000 0.433013
v 0.241316 0.062500 0.417972
v 0.217593 0.108253 0.376881
v 0.185185 0.125000 0.320750
v 0.152778 0.108253 0.264619
v 0.129054 0.062500 0.223528
v 0.120370 0.000000 0.208488
v 0.129054 -0.062500 0.223528
v 0.152778 -0.108253 0.264619
v 0.185185 -0.125000 0.320750
v 0.217593 -0.108253 0.376881
v 0.241316 -0.062500 0.417972
v 0.304381 0.000000 0.396677
v 0.293808 0.062500 0.382899
v 0.264924 0.108253 0.345256
v 0.225467 0.125000 0.293835
v 0.186010 0.108253 0.242414
v 0.157126 0.062500 0.204771
v 0.146554 0.000000 0.190993
v 0.157126 -0.062500 0.204771
v 0.186010 -0.108253 0.242414
v 0.225467 -0.125000 0.293835
v 0.264924 -0.108253 0.345256
v 0.293808 -0.062500 0.382899
v 0.353553 0.000000 0.353554
v 0.341273 0.062500 0.341273
v 0.307722 0.108253 0.307723
v 0.261891 0.125000 0.261892
v 0.216060 0.108253 0.216061
v 0.182510 0.062500 0.182510
v 0.170229 0.000000 0.170229
v 0.182510 -0.062500 0.182510
v 0.216060 -0.108253 0.216061
v 0.261891 -0.125000 0.261892
v 0.307722 -0.108253 0.307723
v 0.341273 -0.062500 0.341273
v 0.396677 0.000000 0.304381
v 0.382899 0.062500 0.293808
v 0.345256 0.108253 0.264924
v 0.293835 0.125000 0.225467
v 0.242414 0.108253 0.186010
v 0.204771 0.062500 0.157126
v 0.190992 0.000000 0.146554
v 0.204771 -0.062500 0.157126
v 0.242414 -0.108253 0.186010
v 0.293835 -0.125000 0.225467
v 0.345256 -0.108253 0.264924
v 0.382899 -0.062500 0.293808
v 0.433013 0.000000 0.250000
v 0.417972 0.062500 0.241317
v 0.376881 0.108253 0.217593
v 0.320750 0.125000 0.185185
v 0.264619 0.108253 0.152778
v 0.223528 0.062500 0.129054
v 0.208488 0.000000 0.120370
v 0.223528 -0.062500 0.129054
v 0.264619 -0.108253 0.152778
v 0.320750 -0.125000 0.185185
v 0.376881 -0.108253 0.217593
v 0.417972 -0.062500 0.241317
v 0.461940 0.000000 0.191342
v 0.445895 0.062500 0.184696
v 0.402059 0.108253 0.166538
v 0.342178 0.125000 0.141735
v 0.282296 0.108253 0.116931
v 0.238460 0.062500 0.098774
v 0.222415 0.000000 0.092128
v 0.238460 -0.062500 0.098774
v 0.282296 -0.108253 0.116931
v 0.342178 -0.125000 0.141735
v 0.402059 -0.108253 0.166538
v 0.445895 -0.062500 0.184696
v 0.482963 0.000000 0.129409
v 0.466188 0.062500 0.124914
v 0.420357 0.108253 0.112634
v 0.357750 0.125000 0.095859
v 0.295144 0.108253 0.079084
v 0.249313 0.062500 0.066803
v 0.232538 0.000000 0.062308
v 0.249313 -0.062500 0.066803
v 0.295144 -0.108253 0.079084
v 0.357750 -0.125000 0.095859
v 0.420357 -0.108253 0.112634
v 0.466188 -0.062500 0.124914
v 0.495722 0.000000 0.065263
v 0.478504 0.062500 0.062996
v 0.431462 0.108253 0.056803
v 0.367202 0.125000 0.048343
v 0.302941 0.108253 0.039883
v 0.255900 0.062500 0.033690
v 0.238681 0.000000 0.031423
v 0.255900 -0.062500 0.033690
v 0.302941 -0.108253 0.039883
v 0.367202 -0.125000 0.048343
v 0.431462 -0.108253 0.056803
v 0.478504 -0.062500 0.062996
vn 1.0000 -0.0000 -0.0000
vn 0.8619 0.5071 -0.0000
vn 0.4962 0.8682 -0.0000
vn 0.0104 0.9999 -0.0000
vn -0.4801 0.8772 -0.0000
vn -0.8562 0.5167 -0.0000
vn -1.0000 -0.0000 -0.0000
vn -0.8562 -0.5167 -0.0000
vn -0.4801 -0.8772 -0.0000
vn 0.0104 -0.9999 -0.0000
vn 0.4962 -0.8682 -0.0000
vn 0.8619 -0.5071 -0.0000
vn 0.9914 -0.0000 -0.1305
vn 0.8545 0.5071 -0.1125
vn 0.4919 0.8682 -0.0648
vn 0.0103 0.9999 -0.0014
vn -0.4759 0.8772 0.0627
vn -0.8488 0.5167 0.1118
vn -0.9914 -0.0000 0.1305
vn -0.8488 -0.5167 0.1118
vn -0.4759 -0.8772 0.0627
vn 0.0103 -0.9999 -0.0014
vn 0.4920 -0.8682 -0.0648
vn 0.8545 -0.5071 -0.1125
vn 0.9659 -0.0000 -0.2588
vn 0.8325 0.5071 -0.2231
vn 0.4793 0.8682 -0.1284
vn 0.0101 0.9999 -0.0027
vn -0.4637 0.8772 0.1242
vn -0.8270 0.5167 0.2216
vn -0.9659 -0.0000 0.2588
vn -0.8270 -0.5167 0.2216
vn -0.4637 -0.8772 0.1242
vn 0.0101 -0.9999 -0.0027
vn 0.4793 -0.8682 -0.1284
vn 0.8325 -0.5071 -0.2231
vn 0.9239 -0.0000 -0.3827
vn 0.7963 0.5071 -0.3298
vn 0.4584 0.8682 -0.1899
vn 0.0096 0.9999 -0.0040
vn -0.4435 0.8772 0.1837
vn -0.7910 0.5167 0.3276
vn -0.9239 -0.0000 0.3827
vn -0.7910 -0.5167 0.3276
vn -0.4435 -0.8772 0.1837
vn 0.0096 -0.9999 -0.0040
vn 0.4584 -0.8682 -0.1899
vn 0.7963 -0.5071 -0.3298
vn 0.8660 -0.0000 -0.5000
vn 0.7464 0.5071 -0.4310
vn 0.4297 0.8682 -0.2481
vn 0.0090 0.9999 -0.0052
vn -0.4157 0.8772 0.2400
vn -0.7415 0.5167 0.4281
vn -0.8660 -0.0000 0.5000
vn -0.7415 -0.5167 0.4281
vn -0.4157 -0.8772 0.2400
vn 0.0090 -0.9999 -0.0052
vn 0.4297 -0.8682 -0.2481
vn 0.7464 -0.5071 -0.4310
vn 0.7934 -0.0000 -0.6088
vn 0.6838 0.5071 -0.5247
vn 0.3937 0.8682 -0.3021
vn 0.0083 0.9999 -0.0063
vn -0.3809 0.8772 0.2922
vn -0.6792 0.5167 0.5212
vn -0.7934 -0.0000 0.6088
vn -0.6792 -0.5167 0.5212
vn -0.3809 -0.8772 0.2922
vn 0.0083 -0.9999 -0.0063
vn 0.3937 -0.8682 -0.3021
vn 0.6838 -0.5071 -0.5247
vn 0.7071 -0.0000 -0.7071
vn 0.6095 0.5071 -0.6095
vn 0.3509 0.8682 -0.3509
vn 0.0074 0.9999 -0.0074
vn -0.3394 0.8772 0.3395
vn -0.6054 0.5167 0.6054
vn -0.7071 -0.0000 0.7071
vn -0.6054 -0.5167 0.6054
vn -0.3395 -0.8772 0.3395
vn 0.0074 -0.9999 -0.0074
vn 0.3509 -0.8682 -0.3509
vn 0.6095 -0.5071 -0.6095
vn 0.6088 -0.0000 -0.7934
vn 0.5247 0.5071 -0.6838
vn 0.3021 0.8682 -0.3937
vn 0.0063 0.9999 -0.0083
vn -0.2922 0.8772 0.3809
vn -0.5212 0.5167 0.6792
vn -0.6088 -0.0000 0.7934
vn -0.5212 -0.5167 0.6792
vn -0.2922 -0.8772 0.3809
vn 0.0063 -0.9999 -0.0083
vn 0.3021 -0.8682 -0.3937
vn 0.5247 -0.5071 -0.6838
vn 0.5000 -0.0000 -0.8660
vn 0.4310 0.5071 -0.7464
vn 0.2481 0.8682 -0.4297
vn 0.0052 0.9999 -0.0090
vn -0.2400 0.8772 0.4157
vn -0.4281 0.5167 0.7415
vn -0.5000 -0.0000 0.8660
vn -0.4281 -0.5167 0.7415
vn -0.2400 -0.8772 0.4157
vn 0.0052 -0.9999 -0.0090
vn 0.2481 -0.8682 -0.4297
vn 0.4310 -0.5071 -0.7464
vn 0.3827 -0.0000 -0.9239
vn 0.3298 0.5071 -0.7963
vn 0.1899 0.8682 -0.4584
vn 0.0040 0.9999 -0.0096
vn -0.1837 0.8772 0.4435
vn -0.3276 0.5167 0.7910
vn -0.3827 -0.0000 0.9239
vn -0.3276 -0.5167 0.7910
vn -0.1837 -0.8772 0.4435
vn 0.0040 -0.9999 -0.0096
vn 0.1899 -0.8682 -0.4584
vn 0.3298 -0.5071 -0.7963
vn 0.2588 -0.0000 -0.9659
vn 0.2231 0.5071 -0.8325
vn 0.1284 0.8682 -0.4793
vn 0.0027 0.9999 -0.0101
vn -0.1242 0.8772 0.4637
vn -0.2216 0.5167 0.8270
vn -0.2588 -0.0000 0.9659
vn -0.2216 -0.5167 0.8270
vn -0.1242 -0.8772 0.4637
vn 0.0027 -0.9999 -0.0101
vn 0.1284 -0.8682 -0.4793
vn 0.2231 -0.5071 -0.8325
vn 0.1305 -0.0000 -0.9914
vn 0.1125 0.5071 -0.8545
vn 0.0648 0.8682 -0.4920
vn 0.0014 0.9999 -0.0103
vn -0.0627 0.8772 0.4760
vn -0.1118 0.5167 0.8488
vn -0.1305 -0.0000 0.9914
vn -0.1118 -0.5167 0.8488
vn -0.0627 -0.8772 0.4760
vn 0.0014 -0.9999 -0.0103
vn 0.0648 -0.8682 -0.4919
vn 0.1125 -0.5071 -0.8545
vn -0.0000 -0.0000 -1.0000
vn -0.0000 0.5071 -0.8619
vn -0.0000 0.8682 -0.4962
vn -0.0000 0.9999 -0.0104
vn -0.0000 0.8772 0.4801
vn -0.0000 0.5167 0.8562
vn -0.0000 -0.0000 1.0000
vn -0.0000 -0.5167 0.8562
vn -0.0000 -0.8772 0.4800
vn -0.0000 -0.9999 -0.0104
vn -0.0000 -0.8682 -0.4962
vn -0.0000 -0.5071 -0.8619
vn -0.1305 -0.0000 -0.9914
vn -0.1125 0.5071 -0.8545
vn -0.0648 0.8682 -0.4919
vn -0.0014 0.9999 -0.0103
vn 0.0627 0.8772 0.4759
vn 0.1118 0.5167 0.8488
vn 0.1305 -0.0000 0.9914
vn 0.1118 -0.5167 0.8488
vn 0.0627 -0.8772 0.4759
vn -0.0014 -0.9999 -0.0103
vn -0.0648 -0.8682 -0.4919
vn -0.1125 -0.5071 -0.8545
vn -0.2588 -0.0000 -0.9659
vn -0.2231 0.5071 -0.8325
vn -0.1284 0.8682 -0.4793
vn -0.0027 0.9999 -0.0101
vn 0.1242 0.8772 0.4637
vn 0.2216 0.5167 0.8270
vn 0.2588 -0.0000 0.9659
vn 0.2216 -0.5167 0.8270
vn 0.1242 -0.8772 0.4637
vn -0.0027 -0.9999 -0.0101
vn -0.1284 -0.8682 -0.4793
vn -0.2231 -0.5071 -0.8325
vn -0.3827 -0.0000 -0.9239
vn -0.3298 0.5071 -0.7963
vn -0.1899 0.8682 -0.4584
vn -0.0040 0.9999 -0.0096
vn 0.1837 0.8772 0.4435
vn 0.3276 0.5167 0.7910
vn 0.3827 -0.0000 0.9239
vn 0.3276 -0.5167 0.7910
vn 0.1837 -0.8772 0.4435
vn -0.0040 -0.9999 -0.0096
vn -0.1899 -0.8682 -0.4584
vn -0.3298 -0.5071 -0.7963
vn -0.5000 -0.0000 -0.8660
vn -0.4310 0.5071 -0.7464
vn -0.2481 0.8682 -0.4297
vn -0.0052 0.9999 -0.0090
vn 0.2400 0.8772 0.4157
vn 0.4281 0.5167 0.7415
vn 0.5000 -0.0000 0.8660
vn 0.4281 -0.5167 0.7415
vn 0.2400 -0.8772 0.4157
vn -0.0052 -0.9999 -0.0090
vn -0.2481 -0.8682 -0.4297
vn -0.4310 -0.5071 -0.7464
vn -0.6088 -0.0000 -0.7934
vn -0.5247 0.5071 -0.6838
vn -0.3021 0.8682 -0.3937
vn -0.0063 0.9999 -0.0083
vn 0.2922 0.8772 0.3809
vn 0.5212 0.5167 0.6792
vn 0.6088 -0.0000 0.7934
vn 0.5212 -0.5167 0.6792
vn 0.2922 -0.8772 0.3809
vn -0.0063 -0.9999 -0.0083
vn -0.3021 -0.8682 -0.3937
vn -0.5247 -0.5071 -0.6838
vn -0.7071 -0.0000 -0.7071
vn -0.6095 0.5071 -0.6095
vn -0.3509 0.8682 -0.3509
vn -0.0074 0.9999 -0.0074
vn 0.3395 0.8772 0.3395
vn 0.6054 0.5167 0.6054
vn 0.7071 -0.0000 0.7071
vn 0.6054 -0.5167 0.6054
vn 0.3395 -0.8772 0.3395
vn -0.0074 -0.9999 -0.0074
vn -0.3509 -0.8682 -0.3509
vn -0.6095 -0.5071 -0.6095
vn -0.7934 -0.0000 -0.6088
vn -0.6838 0.5071 -0.5247
vn -0.3937 0.8682 -0.3021
vn -0.0083 0.9999 -0.0063
vn 0.3809 0.8772 0.2922
vn 0.6792 0.5167 0.5212
vn 0.7934 -0.0000 0.6088
vn 0.6792 -0.5167 0.5212
vn 0.3809 -0.8772 0.2922
vn -0.0083 -0.9999 -0.0063
vn -0.3937 -0.8682 -0.3021
vn -0.6838 -0.5071 -0.5247
vn -0.8660 -0.0000 -0.5000
vn -0.7464 0.5071 -0.4310
vn -0.4297 0.8682 -0.2481
vn -0.0090 0.9999 -0.0052
vn 0.4157 0.8772 0.2400
vn 0.7415 0.5167 0.4281
vn 0.8660 -0.0000 0.5000
vn 0.7415 -0.5167 0.4281
vn 0.4157 -0.8772 0.2400
vn -0.0090 -0.9999 -0.0052
vn -0.4297 -0.8682 -0.2481
vn -0.7464 -0.5071 -0.4310
vn -0.9239 -0.0000 -0.3827
vn -0.7963 0.5071 -0.3298
vn -0.4584 0.8682 -0.1899
vn -0.0096 0.9999 -0.0040
vn 0.4435 0.8772 0.1837
vn 0.7910 0.5167 0.3276
vn 0.9239 -0.0000 0.3827
vn 0.7910 -0.5167 0.3276
vn 0.4435 -0.8772 0.1837
vn -0.0096 -0.9999 -0.0040
vn -0.4584 -0.8682 -0.1899
vn -0.7963 -0.5071 -0.3298
vn -0.9659 -0.0000 -0.2588
vn -0.8325 0.5071 -0.2231
vn -0.4793 0.8682 -0.1284
vn -0.0101 0.9999 -0.0027
vn 0.4637 0.8772 0.1242
vn 0.8270 0.5167 0.2216
vn 0.9659 -0.0000 0.2588
vn 0.8270 -0.5167 0.2216
vn 0.4637 -0.8772 0.1242
vn -0.0101 -0.9999 -0.0027
vn -0.4793 -0.8682 -0.1284
vn -0.8325 -0.5071 -0.2231
vn -0.9914 -0.0000 -0.1305
vn -0.8545 0.5071 -0.1125
vn -0.4919 0.8682 -0.0648
vn -0.0103 0.9999 -0.0014
vn 0.4759 0.8772 0.0627
vn 0.8488 0.5167 0.1118
vn 0.9914 -0.0000 0.1305
vn 0.8488 -0.5167 0.1118
vn 0.4759 -0.8772 0.0627
vn -0.0103 -0.9999 -0.0014
vn -0.4919 -0.8682 -0.0648
vn -0.8545 -0.5071 -0.1125
vn -0.8619 0.5071 -0.0000
vn -0.4962 0.8682 -0.0000
vn -0.0104 0.9999 -0.0000
vn 0.4801 0.8772 -0.0000
vn 0.8562 0.5167 -0.0000
vn 0.8562 -0.5167 -0.0000
vn 0.4801 -0.8772 -0.0000
vn -0.0104 -0.9999 -0.0000
vn -0.4962 -0.8682 -0.0000
vn -0.8619 -0.5071 -0.0000
vn -0.8545 0.5071 0.1125
vn -0.4919 0.8682 0.0648
vn -0.0103 0.9999 0.0014
vn 0.4759 0.8772 -0.0627
vn 0.8488 0.5167 -0.1118
vn 0.8488 -0.5167 -0.1118
vn 0.4759 -0.8772 -0.0627
vn -0.0103 -0.9999 0.0014
vn -0.4919 -0.8682 0.0648
vn -0.8545 -0.5071 0.1125
vn -0.8325 0.5071 0.2231
vn -0.4793 0.8682 0.1284
vn -0.0101 0.9999 0.0027
vn 0.4637 0.8772 -0.1242
vn 0.8270 0.5167 -0.2216
vn 0.8270 -0.5167 -0.2216
vn 0.4637 -0.8772 -0.1242
vn -0.0101 -0.9999 0.0027
vn -0.4793 -0.8682 0.1284
vn -0.8325 -0.5071 0.2231
vn -0.7963 0.5071 0.3298
vn -0.4584 0.8682 0.1899
vn -0.0096 0.9999 0.0040
vn 0.4435 0.8772 -0.1837
vn 0.7910 0.5167 -0.3276
vn 0.7910 -0.5167 -0.3276
vn 0.4435 -0.8772 -0.1837
vn -0.0096 -0.9999 0.0040
vn -0.4584 -0.8682 0.1899
vn -0.7963 -0.5071 0.3298
vn -0.7464 0.5071 0.4310
vn -0.4297 0.8682 0.2481
vn -0.0090 0.9999 0.0052
vn 0.4157 0.8772 -0.2400
vn 0.7415 0.5167 -0.4281
vn 0.7415 -0.5167 -0.4281
vn 0.4157 -0.8772 -0.2400
vn -0.0090 -0.9999 0.0052
vn -0.4297 -0.8682 0.2481
vn -0.7464 -0.5071 0.4310
vn -0.6838 0.5071 0.5247
vn -0.3937 0.8682 0.3021
vn -0.0083 0.9999 0.0063
vn 0.3809 0.8772 -0.2922
vn 0.6792 0.5167 -0.5212
vn 0.6792 -0.5167 -0.5212
vn 0.3809 -0.8772 -0.2922
vn -0.0083 -0.9999 0.0063
vn -0.3937 -0.8682 0.3021
vn -0.6838 -0.5071 0.5247
vn -0.6095 0.5071 0.6095
vn -0.3509 0.8682 0.3509
vn -0.0074 0.9999 0.0074
vn 0.3395 0.8772 -0.3395
vn 0.6054 0.5167 -0.6054
vn 0.6054 -0.5167 -0.6054
vn 0.3395 -0.8772 -0.3395
vn -0.0074 -0.9999 0.0074
vn -0.3509 -0.8682 0.3509
vn -0.6095 -0.5071 0.6095
vn -0.5247 0.5071 0.6838
vn -0.3021 0.8682 0.3937
vn -0.0063 0.9999 0.0083
vn 0.2922 0.8772 -0.3809
vn 0.5212 0.5167 -0.6792
vn 0.5212 -0.5167 -0.6792
vn 0.2922 -0.8772 -0.3809
vn -0.0063 -0.9999 0.0083
vn -0.3021 -0.8682 0.3937
vn -0.5247 -0.5071 0.6838
vn -0.4310 0.5071 0.7464
vn -0.2481 0.8682 0.4297
vn -0.0052 0.9999 0.0090
vn 0.2400 0.8772 -0.4157
vn 0.4281 0.5167 -0.7415
vn 0.4281 -0.5167 -0.7415
vn 0.2400 -0.8772 -0.4157
vn -0.0052 -0.9999 0.0090
vn -0.2481 -0.8682 0.4297
vn -0.4310 -0.5071 0.7464
vn -0.3298 0.5071 0.7963
vn -0.1899 0.8682 0.4584
vn -0.0040 0.9999 0.0096
vn 0.1837 0.8772 -0.4435
vn 0.3276 0.5167 -0.7910
vn 0.3276 -0.5167 -0.7910
vn 0.1837 -0.8772 -0.4435
vn -0.0040 -0.9999 0.0096
vn -0.1899 -0.8682 0.4584
vn -0.3298 -0.5071 0.7963
vn -0.2231 0.5071 0.8325
vn -0.1284 0.8682 0.4793
vn -0.0027 0.9999 0.0101
vn 0.1242 0.8772 -0.4637
vn 0.2216 0.5167 -0.8270
vn 0.2216 -0.5167 -0.8270
vn 0.1242 -0.8772 -0.4637
vn -0.0027 -0.9999 0.0101
vn -0.1284 -0.8682 0.4793
vn -0.2231 -0.5071 0.8325
vn -0.1125 0.5071 0.8545
vn -0.0648 0.8682 0.4919
vn -0.0014 0.9999 0.0103
vn 0.0627 0.8772 -0.4759
vn 0.1118 0.5167 -0.8488
vn 0.1118 -0.5167 -0.8488
vn 0.0627 -0.8772 -0.4759
vn -0.0014 -0.9999 0.0103
vn -0.0648 -0.8682 0.4919
vn -0.1125 -0.5071 0.8545
vn -0.0000 0.5071 0.8619
vn -0.0000 0.8682 0.4962
vn -0.0000 0.9999 0.0104
vn -0.0000 0.8772 -0.4801
vn -0.0000 0.5167 -0.8562
vn -0.0000 -0.5167 -0.8562
vn -0.0000 -0.8772 -0.4801
vn -0.0000 -0.9999 0.0104
vn -0.0000 -0.8682 0.4962
vn -0.0000 -0.5071 0.8619
vn 0.1125 0.5071 0.8545
vn 0.0648 0.8682 0.4919
vn 0.0014 0.9999 0.0103
vn -0.0627 0.8772 -0.4760
vn -0.1118 0.5167 -0.8488
vn -0.1118 -0.5167 -0.8488
vn -0.0627 -0.8772 -0.4759
vn 0.0014 -0.9999 0.0103
vn 0.0648 -0.8682 0.4920
vn 0.1125 -0.5071 0.8545
vn 0.2231 0.5071 0.8325
vn 0.1284 0.8682 0.4793
vn 0.0027 0.9999 0.0101
vn -0.1242 0.8772 -0.4637
vn -0.2216 0.5167 -0.8270
vn -0.2216 -0.5167 -0.8270
vn -0.1242 -0.8772 -0.4637
vn 0.0027 -0.9999 0.0101
vn 0.1284 -0.8682 0.4793
vn 0.2231 -0.5071 0.8325
vn 0.3298 0.5071 0.7963
vn 0.1899 0.8682 0.4584
vn 0.0040 0.9999 0.0096
vn -0.1837 0.8772 -0.4435
vn -0.3276 0.5167 -0.7910
vn -0.3276 -0.5167 -0.7910
vn -0.1837 -0.8772 -0.4435
vn 0.0040 -0.9999 0.0096
vn 0.1899 -0.8682 0.4584
vn 0.3298 -0.5071 0.7963
vn 0.4310 0.5071 0.7464
vn 0.2481 0.8682 0.4297
vn 0.0052 0.9999 0.0090
vn -0.2400 0.8772 -0.4157
vn -0.4281 0.5167 -0.7415
vn -0.4281 -0.5167 -0.7415
vn -0.2400 -0.8772 -0.4157
vn 0.0052 -0.9999 0.0090
vn 0.2481 -0.8682 0.4297
vn 0.4310 -0.5071 0.7464
vn 0.5247 0.5071 0.6838
vn 0.3021 0.8682 0.3937
vn 0.0063 0.9999 0.0083
vn -0.2922 0.8772 -0.3809
vn -0.5212 0.5167 -0.6792
vn -0.5212 -0.5167 -0.6792
vn -0.2922 -0.8772 -0.3809
vn 0.0063 -0.9999 0.0083
vn 0.3021 -0.8682 0.3937
vn 0.5247 -0.5071 0.6838
vn 0.6095 0.5071 0.6095
vn 0.3509 0.8682 0.3509
vn 0.0074 0.9999 0.0074
vn -0.3394 0.8772 -0.3394
vn -0.6054 0.5167 -0.6054
vn -0.6054 -0.5167 -0.6054
vn -0.3394 -0.8772 -0.3394
vn 0.0074 -0.9999 0.0074
vn 0.3509 -0.8682 0.3509
vn 0.6095 -0.5071 0.6095
vn 0.6838 0.5071 0.5247
vn 0.3937 0.8682 0.3021
vn 0.0083 0.9999 0.0063
vn -0.3809 0.8772 -0.2922
vn -0.6792 0.5167 -0.5212
vn -0.6792 -0.5167 -0.5212
vn -0.3809 -0.8772 -0.2922
vn 0.0083 -0.9999 0.0063
vn 0.3937 -0.8682 0.3021
vn 0.6838 -0.5071 0.5247
vn 0.7464 0.5071 0.4310
vn 0.4297 0.8682 0.2481
vn 0.0090 0.9999 0.0052
vn -0.4157 0.8772 -0.2400
vn -0.7415 0.5167 -0.4281
vn -0.7415 -0.5167 -0.4281
vn -0.4157 -0.8772 -0.2400
vn 0.0090 -0.9999 0.0052
vn 0.4297 -0.8682 0.2481
vn 0.7464 -0.5071 0.4310
vn 0.7963 0.5071 0.3298
vn 0.4584 0.8682 0.1899
vn 0.0096 0.9999 0.0040
vn -0.4435 0.8772 -0.1837
vn -0.7910 0.5167 -0.3276
vn -0.7910 -0.5167 -0.3276
vn -0.4435 -0.8772 -0.1837
vn 0.0096 -0.9999 0.0040
vn 0.4584 -0.8682 0.1899
vn 0.7963 -0.5071 0.3298
vn 0.8325 0.5071 0.2231
vn 0.4793 0.8682 0.1284
vn 0.0101 0.9999 0.0027
vn -0.4637 0.8772 -0.1242
vn -0.8270 0.5167 -0.2216
vn -0.8270 -0.5167 -0.2216
vn -0.4637 -0.8772 -0.1242
vn 0.0101 -0.9999 0.0027
vn 0.4793 -0.8682 0.1284
vn 0.8325 -0.5071 0.2231
vn 0.8545 0.5071 0.1125
vn 0.4920 0.8682 0.0648
vn 0.0103 0.9999 0.0014
vn -0.4759 0.8772 -0.0627
vn -0.8488 0.5167 -0.1118
vn -0.8488 -0.5167 -0.1118
vn -0.4759 -0.8772 -0.0627
vn 0.0103 -0.9999 0.0014
vn 0.4919 -0.8682 0.0648
vn 0.8545 -0.5071 0.1125
vt 0.520833 0.500000
vt 0.500000 0.583333
vt 0.500000 0.500000
vt 0.520833 0.583333
vt 0.500000 0.666667
vt 0.520833 0.750000
vt 0.500000 0.750000
vt 0.520833 0.833333
vt 0.500000 0.833333
vt 0.520833 0.916667
vt 0.500000 0.916667
vt 0.520833 1.000000
vt 0.500000 1.000000
vt 0.520833 0.000000
vt 0.500000 0.083333
vt 0.500000 0.000000
vt 0.520833 0.083333
vt 0.500000 0.166667
vt 0.520833 0.166667
vt 0.500000 0.250000
vt 0.520833 0.250000
vt 0.500000 0.333333
vt 0.520833 0.333333
vt 0.500000 0.416667
vt 0.520833 0.416667
vt 0.541667 0.500000
vt 0.541667 0.583333
vt 0.520833 0.666667
vt 0.541667 0.666667
vt 0.541667 0.750000
vt 0.541667 0.833333
vt 0.541667 0.916667
vt 0.541667 0.083333
vt 0.541667 0.166667
vt 0.541667 0.250000
vt 0.541667 0.333333
vt 0.541667 0.416667
vt 0.562500 0.583333
vt 0.562500 0.666667
vt 0.562500 0.750000
vt 0.562500 0.833333
vt 0.562500 0.916667
vt 0.562500 1.000000
vt 0.541667 1.000000
vt 0.562500 0.000000
vt 0.541667 0.000000
vt 0.562500 0.083333
vt 0.562500 0.166667
vt 0.562500 0.250000
vt 0.562500 0.333333
vt 0.562500 0.416667
vt 0.562500 0.500000
vt 0.583333 0.583333
vt 0.583333 0.666667
vt 0.583333 0.750000
vt 0.583333 0.833333
vt 0.583333 0.916667
vt 0.583333 0.083333
vt 0.583333 0.166667
vt 0.583333 0.250000
vt 0.583333 0.333333
vt 0.583333 0.416667
vt 0.583333 0.500000
vt 0.604167 0.583333
vt 0.604167 0.750000
vt 0.604167 0.916667
vt 0.583333 1.000000
vt 0.583333 0.000000
vt 0.604167 0.083333
vt 0.604167 0.250000
vt 0.604167 0.416667
vt 0.604167 0.500000
vt 0.625000 0.583333
vt 0.604167 0.666667
vt 0.625000 0.666667
vt 0.625000 0.750000
vt 0.604167 0.833333
vt 0.625000 0.833333
vt 0.625000 0.916667
vt 0.604167 1.000000
vt 0.604167 0.000000
vt 0.625000 0.083333
vt 0.625000 0.166667
vt 0.604167 0.166667
vt 0.625000 0.250000
vt 0.625000 0.333333
vt 0.604167 0.333333
vt 0.625000 0.416667
vt 0.645833 0.500000
vt 0.625000 0.500000
vt 0.645833 0.583333
vt 0.645833 0.750000
vt 0.645833 0.833333
vt 0.645833 0.916667
vt 0.625000 1.000000
vt 0.645833 0.000000
vt 0.625000 0.000000
vt 0.645833 0.166667
vt 0.645833 0.250000
vt 0.645833 0.416667
vt 0.666667 0.583333
vt 0.645833 0.666667
vt 0.666667 0.750000
vt 0.666667 0.833333
vt 0.666667 0.916667
vt 0.666667 1.000000
vt 0.645833 1.000000
vt 0.666667 0.000000
vt 0.645833 0.083333
vt 0.666667 0.083333
vt 0.666667 0.166667
vt 0.666667 0.250000
vt 0.645833 0.333333
vt 0.666667 0.416667
vt 0.666667 0.500000
vt 0.687500 0.583333
vt 0.666667 0.666667
vt 0.687500 0.666667
vt 0.687500 0.833333
vt 0.687500 1.000000
vt 0.687500 0.000000
vt 0.687500 0.166667
vt 0.687500 0.333333
vt 0.666667 0.333333
vt 0.687500 0.416667
vt 0.708333 0.500000
vt 0.687500 0.500000
vt 0.708333 0.583333
vt 0.708333 0.666667
vt 0.687500 0.750000
vt 0.708333 0.750000
vt 0.708333 0.833333
vt 0.687500 0.916667
vt 0.708333 0.916667
vt 0.708333 0.000000
vt 0.687500 0.083333
vt 0.708333 0.166667
vt 0.687500 0.250000
vt 0.708333 0.333333
vt 0.708333 0.416667
vt 0.729167 0.583333
vt 0.729167 0.666667
vt 0.729167 0.750000
vt 0.729167 0.916667
vt 0.729167 1.000000
vt 0.708333 1.000000
vt 0.729167 0.000000
vt 0.708333 0.083333
vt 0.729167 0.083333
vt 0.729167 0.250000
vt 0.708333 0.250000
vt 0.729167 0.333333
vt 0.729167 0.416667
vt 0.750000 0.500000
vt 0.729167 0.500000
vt 0.750000 0.583333
vt 0.750000 0.666667
vt 0.750000 0.833333
vt 0.729167 0.833333
vt 0.750000 0.916667
vt 0.750000 0.083333
vt 0.750000 0.166667
vt 0.729167 0.166667
vt 0.750000 0.333333
vt 0.750000 0.416667
vt 0.770833 0.500000
vt 0.770833 0.583333
vt 0.770833 0.666667
vt 0.750000 0.750000
vt 0.770833 0.750000
vt 0.770833 0.833333
vt 0.770833 0.916667
vt 0.750000 1.000000
vt 0.770833 0.000000
vt 0.750000 0.000000
vt 0.770833 0.083333
vt 0.770833 0.250000
vt 0.750000 0.250000
vt 0.770833 0.333333
vt 0.770833 0.416667
vt 0.791667 0.583333
vt 0.791667 0.666667
vt 0.791667 0.750000
vt 0.791667 0.833333
vt 0.791667 0.916667
vt 0.770833 1.000000
vt 0.791667 0.083333
vt 0.791667 0.166667
vt 0.770833 0.166667
vt 0.791667 0.250000
vt 0.791667 0.333333
vt 0.791667 0.416667
vt 0.791667 0.500000
vt 0.812500 0.583333
vt 0.812500 0.750000
vt 0.812500 0.833333
vt 0.812500 0.916667
vt 0.791667 1.000000
vt 0.791667 0.000000
vt 0.812500 0.083333
vt 0.812500 0.166667
vt 0.812500 0.250000
vt 0.812500 0.416667
vt 0.812500 0.500000
vt 0.833333 0.583333
vt 0.833333 0.666667
vt 0.812500 0.666667
vt 0.833333 0.833333
vt 0.833333 0.916667
vt 0.833333 1.000000
vt 0.812500 1.000000
vt 0.833333 0.000000
vt 0.812500 0.000000
vt 0.833333 0.083333
vt 0.833333 0.166667
vt 0.833333 0.333333
vt 0.812500 0.333333
vt 0.833333 0.416667
vt 0.854167 0.500000
vt 0.833333 0.500000
vt 0.854167 0.583333
vt 0.854167 0.666667
vt 0.833333 0.750000
vt 0.854167 0.750000
vt 0.854167 0.833333
vt 0.854167 0.916667
vt 0.854167 0.083333
vt 0.854167 0.166667
vt 0.854167 0.250000
vt 0.833333 0.250000
vt 0.854167 0.333333
vt 0.854167 0.416667
vt 0.875000 0.500000
vt 0.875000 0.666667
vt 0.875000 0.750000
vt 0.875000 0.916667
vt 0.875000 1.000000
vt 0.854167 1.000000
vt 0.875000 0.000000
vt 0.854167 0.000000
vt 0.875000 0.083333
vt 0.875000 0.250000
vt 0.875000 0.333333
vt 0.895833 0.583333
vt 0.875000 0.583333
vt 0.895833 0.750000
vt 0.895833 0.833333
vt 0.875000 0.833333
vt 0.895833 0.916667
vt 0.895833 0.000000
vt 0.895833 0.166667
vt 0.875000 0.166667
vt 0.895833 0.250000
vt 0.895833 0.416667
vt 0.875000 0.416667
vt 0.895833 0.500000
vt 0.916667 0.583333
vt 0.916667 0.666667
vt 0.895833 0.666667
vt 0.916667 0.750000
vt 0.916667 0.833333
vt 0.916667 0.916667
vt 0.895833 1.000000
vt 0.916667 0.083333
vt 0.895833 0.083333
vt 0.916667 0.166667
vt 0.916667 0.250000
vt 0.895833 0.333333
vt 0.916667 0.333333
vt 0.916667 0.416667
vt 0.937500 0.500000
vt 0.916667 0.500000
vt 0.937500 0.583333
vt 0.937500 0.666667
vt 0.937500 0.750000
vt 0.937500 0.833333
vt 0.937500 0.916667
vt 0.916667 1.000000
vt 0.916667 0.000000
vt 0.937500 0.083333
vt 0.937500 0.166667
vt 0.937500 0.250000
vt 0.937500 0.333333
vt 0.937500 0.416667
vt 0.958333 0.500000
vt 0.958333 0.666667
vt 0.958333 0.750000
vt 0.958333 0.833333
vt 0.958333 0.916667
vt 0.937500 1.000000
vt 0.958333 0.000000
vt 0.937500 0.000000
vt 0.958333 0.083333
vt 0.958333 0.250000
vt 0.958333 0.333333
vt 0.979167 0.500000
vt 0.958333 0.583333
vt 0.979167 0.583333
vt 0.979167 0.750000
vt 0.979167 0.833333
vt 0.979167 0.916667
vt 0.958333 1.000000
vt 0.979167 0.000000
vt 0.979167 0.083333
vt 0.958333 0.166667
vt 0.979167 0.166667
vt 0.979167 0.250000
vt 0.979167 0.416667
vt 0.958333 0.416667
vt 1.000000 0.583333
vt 1.000000 0.666667
vt 0.979167 0.666667
vt 1.000000 0.750000
vt 1.000000 0.833333
vt 1.000000 1.000000
vt 0.979167 1.000000
vt 1.000000 0.000000
vt 1.000000 0.083333
vt 1.000000 0.166667
vt 1.000000 0.250000
vt 0.979167 0.333333
vt 1.000000 0.333333
vt 1.000000 0.416667
vt 0.020833 0.500000
vt 0.000000 0.583333
vt 0.000000 0.500000
vt 0.020833 0.583333
vt 0.000000 0.666667
vt 0.020833 0.666667
vt 0.000000 0.750000
vt 0.020833 0.750000
vt 0.000000 0.833333
vt 0.020833 0.833333
vt 0.000000 0.916667
vt 0.020833 0.916667
vt 0.000000 1.000000
vt 0.020833 0.000000
vt 0.000000 0.083333
vt 0.000000 0.000000
vt 0.020833 0.083333
vt 0.000000 0.166667
vt 0.020833 0.250000
vt 0.000000 0.250000
vt 0.020833 0.333333
vt 0.000000 0.333333
vt 0.020833 0.416667
vt 0.000000 0.416667
vt 0.041667 0.583333
vt 0.041667 0.666667
vt 0.041667 0.750000
vt 0.041667 0.833333
vt 0.041667 0.916667
vt 0.020833 1.000000
vt 0.041667 0.000000
vt 0.041667 0.083333
vt 0.020833 0.166667
vt 0.041667 0.250000
vt 0.041667 0.333333
vt 0.041667 0.416667
vt 0.062500 0.500000
vt 0.041667 0.500000
vt 0.062500 0.583333
vt 0.062500 0.750000
vt 0.062500 0.833333
vt 0.062500 0.916667
vt 0.041667 1.000000
vt 0.062500 0.083333
vt 0.062500 0.166667
vt 0.041667 0.166667
vt 0.062500 0.250000
vt 0.062500 0.416667
vt 0.083333 0.583333
vt 0.083333 0.666667
vt 0.062500 0.666667
vt 0.083333 0.750000
vt 0.083333 0.833333
vt 0.083333 0.916667
vt 0.083333 1.000000
vt 0.062500 1.000000
vt 0.083333 0.000000
vt 0.062500 0.000000
vt 0.083333 0.083333
vt 0.083333 0.166667
vt 0.083333 0.250000
vt 0.062500 0.333333
vt 0.083333 0.333333
vt 0.083333 0.416667
vt 0.104167 0.500000
vt 0.083333 0.500000
vt 0.104167 0.583333
vt 0.104167 0.666667
vt 0.104167 0.750000
vt 0.104167 0.833333
vt 0.104167 0.916667
vt 0.104167 0.083333
vt 0.104167 0.166667
vt 0.104167 0.250000
vt 0.104167 0.333333
vt 0.104167 0.416667
vt 0.125000 0.500000
vt 0.125000 0.666667
vt 0.125000 0.750000
vt 0.125000 0.916667
vt 0.104167 1.000000
vt 0.125000 0.000000
vt 0.104167 0.000000
vt 0.125000 0.083333
vt 0.125000 0.250000
vt 0.125000 0.333333
vt 0.145833 0.500000
vt 0.125000 0.583333
vt 0.145833 0.666667
vt 0.145833 0.750000
vt 0.125000 0.833333
vt 0.145833 0.833333
vt 0.145833 1.000000
vt 0.125000 1.000000
vt 0.145833 0.000000
vt 0.145833 0.083333
vt 0.125000 0.166667
vt 0.145833 0.166667
vt 0.145833 0.250000
vt 0.145833 0.333333
vt 0.125000 0.416667
vt 0.166667 0.500000
vt 0.145833 0.583333
vt 0.166667 0.666667
vt 0.166667 0.750000
vt 0.166667 0.833333
vt 0.166667 0.916667
vt 0.145833 0.916667
vt 0.166667 1.000000
vt 0.166667 0.000000
vt 0.166667 0.083333
vt 0.166667 0.166667
vt 0.166667 0.250000
vt 0.166667 0.333333
vt 0.145833 0.416667
vt 0.187500 0.500000
vt 0.166667 0.583333
vt 0.187500 0.583333
vt 0.187500 0.750000
vt 0.187500 0.833333
vt 0.187500 0.916667
vt 0.187500 0.083333
vt 0.187500 0.166667
vt 0.187500 0.250000
vt 0.187500 0.416667
vt 0.166667 0.416667
vt 0.208333 0.500000
vt 0.208333 0.583333
vt 0.187500 0.666667
vt 0.208333 0.666667
vt 0.208333 0.833333
vt 0.208333 0.916667
vt 0.208333 1.000000
vt 0.187500 1.000000
vt 0.208333 0.000000
vt 0.187500 0.000000
vt 0.208333 0.083333
vt 0.208333 0.166667
vt 0.208333 0.333333
vt 0.187500 0.333333
vt 0.208333 0.416667
vt 0.229167 0.500000
vt 0.229167 0.583333
vt 0.229167 0.666667
vt 0.208333 0.750000
vt 0.229167 0.750000
vt 0.229167 0.833333
vt 0.229167 0.916667
vt 0.229167 0.083333
vt 0.229167 0.166667
vt 0.229167 0.250000
vt 0.208333 0.250000
vt 0.229167 0.333333
vt 0.229167 0.416667
vt 0.250000 0.583333
vt 0.250000 0.666667
vt 0.250000 0.750000
vt 0.250000 0.833333
vt 0.250000 0.916667
vt 0.229167 1.000000
vt 0.250000 0.000000
vt 0.229167 0.000000
vt 0.250000 0.083333
vt 0.250000 0.166667
vt 0.250000 0.250000
vt 0.250000 0.333333
vt 0.250000 0.416667
vt 0.270833 0.500000
vt 0.250000 0.500000
vt 0.270833 0.583333
vt 0.270833 0.750000
vt 0.270833 0.916667
vt 0.270833 1.000000
vt 0.250000 1.000000
vt 0.270833 0.000000
vt 0.270833 0.083333
vt 0.270833 0.250000
vt 0.270833 0.333333
vt 0.270833 0.416667
vt 0.291667 0.500000
vt 0.291667 0.583333
vt 0.270833 0.666667
vt 0.291667 0.666667
vt 0.291667 0.750000
vt 0.270833 0.833333
vt 0.291667 0.833333
vt 0.291667 0.916667
vt 0.291667 0.083333
vt 0.270833 0.166667
vt 0.291667 0.250000
vt 0.291667 0.333333
vt 0.291667 0.416667
vt 0.312500 0.583333
vt 0.312500 0.750000
vt 0.312500 0.833333
vt 0.312500 0.916667
vt 0.291667 1.000000
vt 0.291667 0.000000
vt 0.312500 0.083333
vt 0.291667 0.166667
vt 0.312500 0.166667
vt 0.312500 0.250000
vt 0.312500 0.333333
vt 0.312500 0.416667
vt 0.333333 0.500000
vt 0.312500 0.500000
vt 0.333333 0.666667
vt 0.312500 0.666667
vt 0.333333 0.750000
vt 0.333333 0.916667
vt 0.312500 1.000000
vt 0.312500 0.000000
vt 0.333333 0.083333
vt 0.333333 0.250000
vt 0.333333 0.333333
vt 0.354167 0.500000
vt 0.333333 0.583333
vt 0.354167 0.583333
vt 0.354167 0.666667
vt 0.354167 0.750000
vt 0.333333 0.833333
vt 0.354167 0.833333
vt 0.354167 0.916667
vt 0.333333 1.000000
vt 0.354167 0.000000
vt 0.333333 0.000000
vt 0.354167 0.166667
vt 0.333333 0.166667
vt 0.354167 0.250000
vt 0.354167 0.333333
vt 0.354167 0.416667
vt 0.333333 0.416667
vt 0.375000 0.583333
vt 0.375000 0.666667
vt 0.375000 0.750000
vt 0.375000 0.833333
vt 0.375000 0.916667
vt 0.375000 1.000000
vt 0.354167 1.000000
vt 0.375000 0.000000
vt 0.354167 0.083333
vt 0.375000 0.083333
vt 0.375000 0.166667
vt 0.375000 0.250000
vt 0.375000 0.333333
vt 0.375000 0.416667
vt 0.395833 0.500000
vt 0.375000 0.500000
vt 0.395833 0.666667
vt 0.395833 0.750000
vt 0.395833 0.833333
vt 0.395833 1.000000
vt 0.395833 0.000000
vt 0.395833 0.166667
vt 0.395833 0.250000
vt 0.395833 0.333333
vt 0.416667 0.500000
vt 0.395833 0.583333
vt 0.416667 0.666667
vt 0.416667 0.833333
vt 0.395833 0.916667
vt 0.416667 1.000000
vt 0.416667 0.000000
vt 0.395833 0.083333
vt 0.416667 0.166667
vt 0.416667 0.333333
vt 0.395833 0.416667
vt 0.437500 0.583333
vt 0.416667 0.583333
vt 0.437500 0.666667
vt 0.416667 0.750000
vt 0.437500 0.750000
vt 0.437500 0.833333
vt 0.416667 0.916667
vt 0.437500 1.000000
vt 0.437500 0.000000
vt 0.416667 0.083333
vt 0.437500 0.083333
vt 0.437500 0.250000
vt 0.416667 0.250000
vt 0.437500 0.333333
vt 0.437500 0.416667
vt 0.416667 0.416667
vt 0.458333 0.500000
vt 0.437500 0.500000
vt 0.458333 0.666667
vt 0.458333 0.750000
vt 0.458333 0.833333
vt 0.437500 0.916667
vt 0.458333 0.916667
vt 0.458333 0.000000
vt 0.458333 0.166667
vt 0.437500 0.166667
vt 0.458333 0.250000
vt 0.458333 0.333333
vt 0.458333 0.416667
vt 0.479167 0.583333
vt 0.458333 0.583333
vt 0.479167 0.666667
vt 0.479167 0.750000
vt 0.479167 0.833333
vt 0.479167 0.916667
vt 0.479167 1.000000
vt 0.458333 1.000000
vt 0.479167 0.000000
vt 0.458333 0.083333
vt 0.479167 0.083333
vt 0.479167 0.166667
vt 0.479167 0.250000
vt 0.479167 0.333333
vt 0.479167 0.416667
vt 0.479167 0.500000
vt 1.000000 0.500000
vt 1.000000 0.916667
s 1
f 13/1/13 2/2/2 1/3/1
f 14/4/14 3/5/3 2/2/2
f 3/5/3 16/6/16 4/7/4
f 4/7/4 17/8/17 5/9/5
f 5/9/5 18/10/18 6/11/6
f 6/11/6 19/12/19 7/13/7
f 19/14/19 8/15/8 7/16/7
f 20/17/20 9/18/9 8/15/8
f 21/19/21 10/20/10 9/18/9
f 22/21/22 11/22/11 10/20/10
f 23/23/23 12/24/12 11/22/11
f 24/25/24 1/3/1 12/24/12
f 25/26/25 14/4/14 13/1/13
f 26/27/26 15/28/15 14/4/14
f 27/29/27 16/6/16 15/28/15
f 28/30/28 17/8/17 16/6/16
f 29/31/29 18/10/18 17/8/17
f 30/32/30 19/12/19 18/10/18
f 19/14/19 32/33/32 20/17/20
f 20/17/20 33/34/33 21/19/21
f 21/19/21 34/35/34 22/21/22
f 22/21/22 35/36/35 23/23/23
f 23/23/23 36/37/36 24/25/24
f 24/25/24 25/26/25 13/1/13
f 25/26/25 38/38/38 26/27/26
f 26/27/26 39/39/39 27/29/27
f 27/29/27 40/40/40 28/30/28
f 28/30/28 41/41/41 29/31/29
f 29/31/29 42/42/42 30/32/30
f 30/32/30 43/43/43 31/44/31
f 43/45/43 32/33/32 31/46/31
f 44/47/44 33/34/33 32/33/32
f 45/48/45 34/35/34 33/34/33
f 46/49/46 35/36/35 34/35/34
f 47/50/47 36/37/36 35/36/35
f 48/51/48 25/26/25 36/37/36
f 37/52/37 50/53/50 38/38/38
f 38/38/38 51/54/51 39/39/39
f 39/39/39 52/55/52 40/40/40
f 52/55/52 41/41/41 40/40/40
f 53/56/53 42/42/42 41/41/41
f 54/57/54 43/43/43 42/42/42
f 43/45/43 56/58/56 44/47/44
f 44/47/44 57/59/57 45/48/45
f 57/59/57 46/49/46 45/48/45
f 58/60/58 47/50/47 46/49/46
f 59/61/59 48/51/48 47/50/47
f 60/62/60 37/52/37 48/51/48
f 49/63/49 62/64/62 50/53/50
f 62/64/62 51/54/51 50/53/50
f 51/54/51 64/65/64 52/55/52
f 64/65/64 53/56/53 52/55/52
f 53/56/53 66/66/66 54/57/54
f 66/66/66 55/67/55 54/57/54
f 55/68/55 68/69/68 56/58/56
f 68/69/68 57/59/57 56/58/56
f 57/59/57 70/70/70 58/60/58
f 70/70/70 59/61/59 58/60/58
f 59/61/59 72/71/72 60/62/60
f 72/71/72 49/63/49 60/62/60
f 61/72/61 74/73/74 62/64/62
f 74/73/74 63/74/63 62/64/62
f 75/75/75 64/65/64 63/74/63
f 76/76/76 65/77/65 64/65/64
f 77/78/77 66/66/66 65/77/65
f 78/79/78 67/80/67 66/66/66
f 67/81/67 80/82/80 68/69/68
f 68/69/68 81/83/81 69/84/69
f 69/84/69 82/85/82 70/70/70
f 70/70/70 83/86/83 71/87/71
f 71/87/71 84/88/84 72/71/72
f 84/88/84 61/72/61 72/71/72
f 85/89/85 74/73/74 73/90/73
f 86/91/86 75/75/75 74/73/74
f 75/75/75 88/92/88 76/76/76
f 88/92/88 77/78/77 76/76/76
f 89/93/89 78/79/78 77/78/77
f 90/94/90 79/95/79 78/79/78
f 91/96/91 80/82/80 79/97/79
f 80/82/80 93/98/93 81/83/81
f 93/98/93 82/85/82 81/83/81
f 94/99/94 83/86/83 82/85/82
f 83/86/83 96/100/96 84/88/84
f 84/88/84 85/89/85 73/90/73
f 85/89/85 98/101/98 86/91/86
f 98/101/98 87/102/87 86/91/86
f 87/102/87 100/103/100 88/92/88
f 88/92/88 101/104/101 89/93/89
f 89/93/89 102/105/102 90/94/90
f 90/94/90 103/106/103 91/107/91
f 103/108/103 92/109/92 91/96/91
f 104/110/104 93/98/93 92/109/92
f 105/111/105 94/99/94 93/98/93
f 106/112/106 95/113/95 94/99/94
f 95/113/95 108/114/108 96/100/96
f 108/114/108 85/89/85 96/100/96
f 97/115/97 110/116/110 98/101/98
f 110/116/110 99/117/99 98/101/98
f 111/118/111 100/103/100 99/117/99
f 100/103/100 113/119/113 101/104/101
f 113/119/113 102/105/102 101/104/101
f 102/105/102 115/120/115 103/106/103
f 115/121/115 104/110/104 103/108/103
f 104/110/104 117/122/117 105/111/105
f 117/122/117 106/112/106 105/111/105
f 106/112/106 119/123/119 107/124/107
f 107/124/107 120/125/120 108/114/108
f 120/125/120 97/115/97 108/114/108
f 121/126/121 110/116/110 109/127/109
f 122/128/122 111/118/111 110/116/110
f 123/129/123 112/130/112 111/118/111
f 124/131/124 113/119/113 112/130/112
f 125/132/125 114/133/114 113/119/113
f 126/134/126 115/120/115 114/133/114
f 127/135/127 116/136/116 115/121/115
f 116/136/116 129/137/129 117/122/117
f 129/137/129 118/138/118 117/122/117
f 118/138/118 131/139/131 119/123/119
f 119/123/119 132/140/132 120/125/120
f 120/125/120 121/126/121 109/127/109
f 121/126/121 134/141/134 122/128/122
f 122/128/122 135/142/135 123/129/123
f 123/129/123 136/143/136 124/131/124
f 136/143/136 125/132/125 124/131/124
f 125/132/125 138/144/138 126/134/126
f 126/134/126 139/145/139 127/146/127
f 139/147/139 128/148/128 127/135/127
f 140/149/140 129/137/129 128/148/128
f 129/137/129 142/150/142 130/151/130
f 142/150/142 131/139/131 130/151/130
f 143/152/143 132/140/132 131/139/131
f 144/153/144 121/126/121 132/140/132
f 145/154/145 134/141/134 133/155/133
f 146/156/146 135/142/135 134/141/134
f 147/157/147 136/143/136 135/142/135
f 136/143/136 149/158/149 137/159/137
f 149/158/149 138/144/138 137/159/137
f 150/160/150 139/145/139 138/144/138
f 139/147/139 152/161/152 140/149/140
f 140/149/140 153/162/153 141/163/141
f 153/162/153 142/150/142 141/163/141
f 142/150/142 155/164/155 143/152/143
f 155/164/155 144/153/144 143/152/143
f 156/165/156 133/155/133 144/153/144
f 157/166/157 146/156/146 145/154/145
f 158/167/158 147/157/147 146/156/146
f 159/168/159 148/169/148 147/157/147
f 160/170/160 149/158/149 148/169/148
f 161/171/161 150/160/150 149/158/149
f 162/172/162 151/173/151 150/160/150
f 163/174/163 152/161/152 151/175/151
f 164/176/164 153/162/153 152/161/152
f 153/162/153 166/177/166 154/178/154
f 154/178/154 167/179/167 155/164/155
f 155/164/155 168/180/168 156/165/156
f 156/165/156 157/166/157 145/154/145
f 157/166/157 170/181/170 158/167/158
f 158/167/158 171/182/171 159/168/159
f 171/182/171 160/170/160 159/168/159
f 172/183/172 161/171/161 160/170/160
f 173/184/173 162/172/162 161/171/161
f 174/185/174 163/186/163 162/172/162
f 163/174/163 176/187/176 164/176/164
f 164/176/164 177/188/177 165/189/165
f 165/189/165 178/190/178 166/177/166
f 166/177/166 179/191/179 167/179/167
f 179/191/179 168/180/168 167/179/167
f 180/192/180 157/166/157 168/180/168
f 169/193/169 182/194/182 170/181/170
f 182/194/182 171/182/171 170/181/170
f 171/182/171 184/195/184 172/183/172
f 172/183/172 185/196/185 173/184/173
f 185/196/185 174/185/174 173/184/173
f 186/197/186 175/198/175 174/185/174
f 175/199/175 188/200/188 176/187/176
f 188/200/188 177/188/177 176/187/176
f 189/201/189 178/190/178 177/188/177
f 190/202/190 179/191/179 178/190/178
f 179/191/179 192/203/192 180/192/180
f 192/203/192 169/193/169 180/192/180
f 181/204/181 194/205/194 182/194/182
f 182/194/182 195/206/195 183/207/183
f 195/206/195 184/195/184 183/207/183
f 184/195/184 197/208/197 185/196/185
f 185/196/185 198/209/198 186/197/186
f 186/197/186 199/210/199 187/211/187
f 199/212/199 188/200/188 187/213/187
f 200/214/200 189/201/189 188/200/188
f 201/215/201 190/202/190 189/201/189
f 190/202/190 203/216/203 191/217/191
f 203/216/203 192/203/192 191/217/191
f 204/218/204 181/204/181 192/203/192
f 205/219/205 194/205/194 193/220/193
f 206/221/206 195/206/195 194/205/194
f 207/222/207 196/223/196 195/206/195
f 208/224/208 197/208/197 196/223/196
f 209/225/209 198/209/198 197/208/197
f 210/226/210 199/210/199 198/209/198
f 199/212/199 212/227/212 200/214/200
f 200/214/200 213/228/213 201/215/201
f 201/215/201 214/229/214 202/230/202
f 202/230/202 215/231/215 203/216/203
f 203/216/203 216/232/216 204/218/204
f 204/218/204 205/219/205 193/220/193
f 217/233/217 206/221/206 205/219/205
f 206/221/206 219/234/219 207/222/207
f 207/222/207 220/235/220 208/224/208
f 220/235/220 209/225/209 208/224/208
f 209/225/209 222/236/222 210/226/210
f 210/226/210 223/237/223 211/238/211
f 223/239/223 212/227/212 211/240/211
f 224/241/224 213/228/213 212/227/212
f 213/228/213 226/242/226 214/229/214
f 226/242/226 215/231/215 214/229/214
f 227/243/227 216/232/216 215/231/215
f 216/232/216 217/233/217 205/219/205
f 217/233/217 230/244/230 218/245/218
f 230/244/230 219/234/219 218/245/218
f 219/234/219 232/246/232 220/235/220
f 220/235/220 233/247/233 221/248/221
f 233/247/233 222/236/222 221/248/221
f 234/249/234 223/237/223 222/236/222
f 235/250/235 224/241/224 223/239/223
f 224/241/224 237/251/237 225/252/225
f 237/251/237 226/242/226 225/252/225
f 238/253/238 227/243/227 226/242/226
f 227/243/227 240/254/240 228/255/228
f 240/254/240 217/233/217 228/255/228
f 229/256/229 242/257/242 230/244/230
f 230/244/230 243/258/243 231/259/231
f 231/259/231 244/260/244 232/246/232
f 232/246/232 245/261/245 233/247/233
f 233/247/233 246/262/246 234/249/234
f 246/262/246 235/263/235 234/249/234
f 235/250/235 248/264/248 236/265/236
f 248/264/248 237/251/237 236/265/236
f 249/266/249 238/253/238 237/251/237
f 250/267/250 239/268/239 238/253/238
f 251/269/251 240/254/240 239/268/239
f 252/270/252 229/256/229 240/254/240
f 253/271/253 242/257/242 241/272/241
f 254/273/254 243/258/243 242/257/242
f 255/274/255 244/260/244 243/258/243
f 256/275/256 245/261/245 244/260/244
f 257/276/257 246/262/246 245/261/245
f 258/277/258 247/278/247 246/262/246
f 247/279/247 260/280/260 248/264/248
f 248/264/248 261/281/261 249/266/249
f 249/266/249 262/282/262 250/267/250
f 250/267/250 263/283/263 251/269/251
f 251/269/251 264/284/264 252/270/252
f 252/270/252 253/271/253 241/272/241
f 265/285/265 254/273/254 253/271/253
f 254/273/254 267/286/267 255/274/255
f 267/286/267 256/275/256 255/274/255
f 268/287/268 257/276/257 256/275/256
f 269/288/269 258/277/258 257/276/257
f 270/289/270 259/290/259 258/277/258
f 271/291/271 260/280/260 259/292/259
f 272/293/272 261/281/261 260/280/260
f 261/281/261 274/294/274 262/282/262
f 262/282/262 275/295/275 263/283/263
f 275/295/275 264/284/264 263/283/263
f 264/284/264 265/285/265 253/271/253
f 277/296/277 266/297/266 265/285/265
f 278/298/278 267/286/267 266/297/266
f 267/286/267 280/299/280 268/287/268
f 268/287/268 281/300/281 269/288/269
f 281/300/281 270/289/270 269/288/269
f 282/301/282 271/302/271 270/289/270
f 283/303/283 272/293/272 271/291/271
f 284/304/284 273/305/273 272/293/272
f 285/306/285 274/294/274 273/305/273
f 286/307/286 275/295/275 274/294/274
f 275/295/275 288/308/288 276/309/276
f 276/309/276 277/296/277 265/285/265
f 277/296/277 290/310/289 278/298/278
f 278/298/278 291/311/290 279/312/279
f 279/312/279 292/313/291 280/299/280
f 280/299/280 293/314/292 281/300/281
f 293/314/292 282/301/282 281/300/281
f 282/301/282 295/315/1 283/316/283
f 295/317/1 284/304/284 283/303/283
f 296/318/294 285/306/285 284/304/284
f 297/319/295 286/307/286 285/306/285
f 298/320/296 287/321/287 286/307/286
f 299/322/297 288/308/288 287/321/287
f 300/323/298 277/296/277 288/308/288
f 301/324/19 290/325/289 289/326/7
f 302/327/299 291/328/290 290/325/289
f 303/329/300 292/330/291 291/328/290
f 304/331/301 293/332/292 292/330/291
f 305/333/302 294/334/293 293/332/292
f 306/335/303 295/336/1 294/334/293
f 307/337/13 296/338/294 295/339/1
f 308/340/304 297/341/295 296/338/294
f 297/341/295 310/342/306 298/343/296
f 298/343/296 311/344/307 299/345/297
f 299/345/297 312/346/308 300/347/298
f 300/347/298 301/324/19 289/326/7
f 301/324/19 314/348/309 302/327/299
f 302/327/299 315/349/310 303/329/300
f 315/349/310 304/331/301 303/329/300
f 316/350/311 305/333/302 304/331/301
f 317/351/312 306/335/303 305/333/302
f 318/352/313 307/353/13 306/335/303
f 319/354/25 308/340/304 307/337/13
f 320/355/314 309/356/305 308/340/304
f 309/356/305 322/357/316 310/342/306
f 310/342/306 323/358/317 311/344/307
f 323/358/317 312/346/308 311/344/307
f 324/359/318 301/324/19 312/346/308
f 325/360/43 314/348/309 313/361/31
f 326/362/319 315/349/310 314/348/309
f 315/349/310 328/363/321 316/350/311
f 316/350/311 329/364/322 317/351/312
f 329/364/322 318/352/313 317/351/312
f 330/365/323 319/366/25 318/352/313
f 319/354/25 332/367/324 320/355/314
f 320/355/314 333/368/325 321/369/315
f 333/368/325 322/357/316 321/369/315
f 334/370/326 323/358/317 322/357/316
f 323/358/317 336/371/328 324/359/318
f 324/359/318 325/360/43 313/361/31
f 325/360/43 338/372/329 326/362/319
f 326/362/319 339/373/330 327/374/320
f 327/374/320 340/375/331 328/363/321
f 328/363/321 341/376/332 329/364/322
f 329/364/322 342/377/333 330/365/323
f 330/365/323 343/378/49 331/379/37
f 343/380/49 332/367/324 331/381/37
f 344/382/334 333/368/325 332/367/324
f 345/383/335 334/370/326 333/368/325
f 346/384/336 335/385/327 334/370/326
f 347/386/337 336/371/328 335/385/327
f 348/387/338 325/360/43 336/371/328
f 349/388/67 338/372/329 337/389/55
f 350/390/339 339/373/330 338/372/329
f 351/391/340 340/375/331 339/373/330
f 352/392/341 341/376/332 340/375/331
f 353/393/342 342/377/333 341/376/332
f 354/394/343 343/378/49 342/377/333
f 343/380/49 356/395/344 344/382/334
f 344/382/334 357/396/345 345/383/335
f 345/383/335 358/397/346 346/384/336
f 346/384/336 359/398/347 347/386/337
f 347/386/337 360/399/348 348/387/338
f 348/387/338 349/388/67 337/389/55
f 361/400/79 350/390/339 349/388/67
f 350/390/339 363/401/350 351/391/340
f 363/401/350 352/392/341 351/391/340
f 364/402/351 353/393/342 352/392/341
f 353/393/342 366/403/353 354/394/343
f 366/403/353 355/404/61 354/394/343
f 367/405/73 356/395/344 355/406/61
f 368/407/354 357/396/345 356/395/344
f 357/396/345 370/408/356 358/397/346
f 358/397/346 371/409/357 359/398/347
f 371/409/357 360/399/348 359/398/347
f 360/399/348 361/400/79 349/388/67
f 373/410/91 362/411/349 361/400/79
f 362/411/349 375/412/360 363/401/350
f 375/412/360 364/402/351 363/401/350
f 376/413/361 365/414/352 364/402/351
f 377/415/362 366/403/353 365/414/352
f 366/403/353 379/416/85 367/417/73
f 379/418/85 368/407/354 367/405/73
f 380/419/364 369/420/355 368/407/354
f 381/421/365 370/408/356 369/420/355
f 382/422/366 371/409/357 370/408/356
f 383/423/367 372/424/358 371/409/357
f 372/424/358 373/410/91 361/400/79
f 385/425/103 374/426/359 373/410/91
f 374/426/359 387/427/370 375/412/360
f 375/412/360 388/428/371 376/413/361
f 376/413/361 389/429/372 377/415/362
f 377/415/362 390/430/373 378/431/363
f 378/431/363 391/432/97 379/416/85
f 391/433/97 380/419/364 379/418/85
f 392/434/374 381/421/365 380/419/364
f 393/435/375 382/422/366 381/421/365
f 394/436/376 383/423/367 382/422/366
f 395/437/377 384/438/368 383/423/367
f 384/438/368 385/425/103 373/410/91
f 397/439/115 386/440/369 385/425/103
f 398/441/379 387/427/370 386/440/369
f 387/427/370 400/442/381 388/428/371
f 400/442/381 389/429/372 388/428/371
f 401/443/382 390/430/373 389/429/372
f 402/444/383 391/432/97 390/430/373
f 391/433/97 404/445/384 392/434/374
f 392/434/374 405/446/385 393/435/375
f 393/435/375 406/447/386 394/436/376
f 406/447/386 395/437/377 394/436/376
f 395/437/377 408/448/388 396/449/378
f 396/449/378 397/439/115 385/425/103
f 409/450/127 398/441/379 397/439/115
f 410/451/389 399/452/380 398/441/379
f 411/453/390 400/442/381 399/452/380
f 400/442/381 413/454/392 401/443/382
f 401/443/382 414/455/393 402/444/383
f 402/444/383 415/456/121 403/457/109
f 415/458/121 404/445/384 403/459/109
f 416/460/394 405/446/385 404/445/384
f 417/461/395 406/447/386 405/446/385
f 406/447/386 419/462/397 407/463/387
f 419/462/397 408/448/388 407/463/387
f 420/464/398 397/439/115 408/448/388
f 421/465/139 410/451/389 409/450/127
f 422/466/399 411/453/390 410/451/389
f 423/467/400 412/468/391 411/453/390
f 424/469/401 413/454/392 412/468/391
f 425/470/402 414/455/393 413/454/392
f 426/471/403 415/456/121 414/455/393
f 415/458/121 428/472/404 416/460/394
f 416/460/394 429/473/405 417/461/395
f 417/461/395 430/474/406 418/475/396
f 418/475/396 431/476/407 419/462/397
f 419/462/397 432/477/408 420/464/398
f 420/464/398 421/465/139 409/450/127
f 421/465/139 434/478/409 422/466/399
f 422/466/399 435/479/410 423/467/400
f 423/467/400 436/480/411 424/469/401
f 424/469/401 437/481/412 425/470/402
f 425/470/402 438/482/413 426/471/403
f 438/482/413 427/483/133 426/471/403
f 439/484/145 428/472/404 427/485/133
f 440/486/414 429/473/405 428/472/404
f 441/487/415 430/474/406 429/473/405
f 442/488/416 431/476/407 430/474/406
f 443/489/417 432/477/408 431/476/407
f 444/490/418 421/465/139 432/477/408
f 445/491/163 434/478/409 433/492/151
f 446/493/419 435/479/410 434/478/409
f 435/479/410 448/494/421 436/480/411
f 448/494/421 437/481/412 436/480/411
f 437/481/412 450/495/423 438/482/413
f 438/482/413 451/496/157 439/497/145
f 451/498/157 440/486/414 439/484/145
f 452/499/424 441/487/415 440/486/414
f 441/487/415 454/500/426 442/488/416
f 454/500/426 443/489/417 442/488/416
f 455/501/427 444/490/418 443/489/417
f 456/502/428 433/492/151 444/490/418
f 457/503/175 446/493/419 445/491/163
f 458/504/429 447/505/420 446/493/419
f 459/506/430 448/494/421 447/505/420
f 460/507/431 449/508/422 448/494/421
f 461/509/432 450/495/423 449/508/422
f 462/510/433 451/496/157 450/495/423
f 451/498/157 464/511/434 452/499/424
f 464/511/434 453/512/425 452/499/424
f 453/512/425 466/513/436 454/500/426
f 454/500/426 467/514/437 455/501/427
f 455/501/427 468/515/438 456/502/428
f 456/502/428 457/503/175 445/491/163
f 457/503/175 470/516/439 458/504/429
f 470/516/439 459/506/430 458/504/429
f 459/506/430 472/517/441 460/507/431
f 460/507/431 473/518/442 461/509/432
f 461/509/432 474/519/443 462/510/433
f 474/519/443 463/520/169 462/510/433
f 463/521/169 476/522/444 464/511/434
f 476/522/444 465/523/435 464/511/434
f 477/524/445 466/513/436 465/523/435
f 478/525/446 467/514/437 466/513/436
f 479/526/447 468/515/438 467/514/437
f 480/527/448 457/503/175 468/515/438
f 481/528/199 470/516/439 469/529/187
f 470/516/439 483/530/450 471/531/440
f 471/531/440 484/532/451 472/517/441
f 484/532/451 473/518/442 472/517/441
f 473/518/442 486/533/453 474/519/443
f 486/533/453 475/534/181 474/519/443
f 475/535/181 488/536/454 476/522/444
f 488/536/454 477/524/445 476/522/444
f 477/524/445 490/537/456 478/525/446
f 490/537/456 479/526/447 478/525/446
f 491/538/457 480/527/448 479/526/447
f 480/527/448 481/528/199 469/529/187
f 493/539/211 482/540/449 481/528/199
f 494/541/459 483/530/450 482/540/449
f 495/542/460 484/532/451 483/530/450
f 496/543/461 485/544/452 484/532/451
f 497/545/462 486/533/453 485/544/452
f 498/546/463 487/547/193 486/533/453
f 499/548/205 488/536/454 487/549/193
f 488/536/454 501/550/465 489/551/455
f 489/551/455 502/552/466 490/537/456
f 490/537/456 503/553/467 491/538/457
f 491/538/457 504/554/468 492/555/458
f 492/555/458 493/539/211 481/528/199
f 493/539/211 506/556/469 494/541/459
f 494/541/459 507/557/470 495/542/460
f 495/542/460 508/558/471 496/543/461
f 496/543/461 509/559/472 497/545/462
f 497/545/462 510/560/473 498/546/463
f 498/546/463 511/561/217 499/562/205
f 511/563/217 500/564/464 499/548/205
f 512/565/474 501/550/465 500/564/464
f 513/566/475 502/552/466 501/550/465
f 514/567/476 503/553/467 502/552/466
f 515/568/477 504/554/468 503/553/467
f 516/569/478 493/539/211 504/554/468
f 517/570/235 506/556/469 505/571/223
f 506/556/469 519/572/480 507/557/470
f 507/557/470 520/573/481 508/558/471
f 520/573/481 509/559/472 508/558/471
f 521/574/482 510/560/473 509/559/472
f 510/560/473 523/575/229 511/561/217
f 523/576/229 512/565/474 511/563/217
f 512/565/474 525/577/485 513/566/475
f 513/566/475 526/578/486 514/567/476
f 526/578/486 515/568/477 514/567/476
f 527/579/487 516/569/478 515/568/477
f 516/569/478 517/570/235 505/571/223
f 529/580/247 518/581/479 517/570/235
f 518/581/479 531/582/490 519/572/480
f 531/582/490 520/573/481 519/572/480
f 520/573/481 533/583/492 521/574/482
f 533/583/492 522/584/483 521/574/482
f 522/584/483 535/585/241 523/575/229
f 535/586/241 524/587/484 523/576/229
f 524/587/484 537/588/495 525/577/485
f 537/588/495 526/578/486 525/577/485
f 526/578/486 539/589/497 527/579/487
f 539/589/497 528/590/488 527/579/487
f 528/590/488 529/580/247 517/570/235
f 529/580/247 542/591/499 530/592/489
f 542/591/499 531/582/490 530/592/489
f 543/593/500 532/594/491 531/582/490
f 544/595/501 533/583/492 532/594/491
f 545/596/502 534/597/493 533/583/492
f 534/597/493 547/598/253 535/585/241
f 547/599/253 536/600/494 535/586/241
f 548/601/504 537/588/495 536/600/494
f 537/588/495 550/602/506 538/603/496
f 538/603/496 551/604/507 539/589/497
f 539/589/497 552/605/508 540/606/498
f 552/605/508 529/580/247 540/606/498
f 553/607/271 542/591/499 541/608/259
f 542/591/499 555/609/510 543/593/500
f 555/609/510 544/595/501 543/593/500
f 556/610/511 545/596/502 544/595/501
f 557/611/512 546/612/503 545/596/502
f 558/613/513 547/598/253 546/612/503
f 559/614/265 548/601/504 547/599/253
f 548/601/504 561/615/515 549/616/505
f 549/616/505 562/617/516 550/602/506
f 550/602/506 563/618/517 551/604/507
f 563/618/517 552/605/508 551/604/507
f 564/619/518 541/608/259 552/605/508
f 553/607/271 566/620/519 554/621/509
f 554/621/509 567/622/520 555/609/510
f 555/609/510 568/623/521 556/610/511
f 556/610/511 569/624/522 557/611/512
f 557/611/512 570/625/523 558/613/513
f 558/613/513 571/626/277 559/627/265
f 571/628/277 560/629/514 559/614/265
f 572/630/524 561/615/515 560/629/514
f 573/631/525 562/617/516 561/615/515
f 574/632/526 563/618/517 562/617/516
f 575/633/527 564/619/518 563/618/517
f 576/634/528 553/607/271 564/619/518
f 1/3/1 566/620/519 565/635/283
f 2/2/2 567/622/520 566/620/519
f 3/5/3 568/623/521 567/622/520
f 4/7/4 569/624/522 568/623/521
f 5/9/5 570/625/523 569/624/522
f 6/11/6 571/626/277 570/625/523
f 571/628/277 8/15/8 572/630/524
f 572/630/524 9/18/9 573/631/525
f 573/631/525 10/20/10 574/632/526
f 574/632/526 11/22/11 575/633/527
f 11/22/11 576/634/528 575/633/527
f 12/24/12 565/635/283 576/634/528
f 13/1/13 14/4/14 2/2/2
f 14/4/14 15/28/15 3/5/3
f 3/5/3 15/28/15 16/6/16
f 4/7/4 16/6/16 17/8/17
f 5/9/5 17/8/17 18/10/18
f 6/11/6 18/10/18 19/12/19
f 19/14/19 20/17/20 8/15/8
f 20/17/20 21/19/21 9/18/9
f 21/19/21 22/21/22 10/20/10
f 22/21/22 23/23/23 11/22/11
f 23/23/23 24/25/24 12/24/12
f 24/25/24 13/1/13 1/3/1
f 25/26/25 26/27/26 14/4/14
f 26/27/26 27/29/27 15/28/15
f 27/29/27 28/30/28 16/6/16
f 28/30/28 29/31/29 17/8/17
f 29/31/29 30/32/30 18/10/18
f 30/32/30 31/44/31 19/12/19
f 19/14/19 31/46/31 32/33/32
f 20/17/20 32/33/32 33/34/33
f 21/19/21 33/34/33 34/35/34
f 22/21/22 34/35/34 35/36/35
f 23/23/23 35/36/35 36/37/36
f 24/25/24 36/37/36 25/26/25
f 25/26/25 37/52/37 38/38/38
f 26/27/26 38/38/38 39/39/39
f 27/29/27 39/39/39 40/40/40
f 28/30/28 40/40/40 41/41/41
f 29/31/29 41/41/41 42/42/42
f 30/32/30 42/42/42 43/43/43
f 43/45/43 44/47/44 32/33/32
f 44/47/44 45/48/45 33/34/33
f 45/48/45 46/49/46 34/35/34
f 46/49/46 47/50/47 35/36/35
f 47/50/47 48/51/48 36/37/36
f 48/51/48 37/52/37 25/26/25
f 37/52/37 49/63/49 50/53/50
f 38/38/38 50/53/50 51/54/51
f 39/39/39 51/54/51 52/55/52
f 52/55/52 53/56/53 41/41/41
f 53/56/53 54/57/54 42/42/42
f 54/57/54 55/67/55 43/43/43
f 43/45/43 55/68/55 56/58/56
f 44/47/44 56/58/56 57/59/57
f 57/59/57 58/60/58 46/49/46
f 58/60/58 59/61/59 47/50/47
f 59/61/59 60/62/60 48/51/48
f 60/62/60 49/63/49 37/52/37
f 49/63/49 61/72/61 62/64/62
f 62/64/62 63/74/63 51/54/51
f 51/54/51 63/74/63 64/65/64
f 64/65/64 65/77/65 53/56/53
f 53/56/53 65/77/65 66/66/66
f 66/66/66 67/80/67 55/67/55
f 55/68/55 67/81/67 68/69/68
f 68/69/68 69/84/69 57/59/57
f 57/59/57 69/84/69 70/70/70
f 70/70/70 71/87/71 59/61/59
f 59/61/59 71/87/71 72/71/72
f 72/71/72 61/72/61 49/63/49
f 61/72/61 73/90/73 74/73/74
f 74/73/74 75/75/75 63/74/63
f 75/75/75 76/76/76 64/65/64
f 76/76/76 77/78/77 65/77/65
f 77/78/77 78/79/78 66/66/66
f 78/79/78 79/95/79 67/80/67
f 67/81/67 79/97/79 80/82/80
f 68/69/68 80/82/80 81/83/81
f 69/84/69 81/83/81 82/85/82
f 70/70/70 82/85/82 83/86/83
f 71/87/71 83/86/83 84/88/84
f 84/88/84 73/90/73 61/72/61
f 85/89/85 86/91/86 74/73/74
f 86/91/86 87/102/87 75/75/75
f 75/75/75 87/102/87 88/92/88
f 88/92/88 89/93/89 77/78/77
f 89/93/89 90/94/90 78/79/78
f 90/94/90 91/107/91 79/95/79
f 91/96/91 92/109/92 80/82/80
f 80/82/80 92/109/92 93/98/93
f 93/98/93 94/99/94 82/85/82
f 94/99/94 95/113/95 83/86/83
f 83/86/83 95/113/95 96/100/96
f 84/88/84 96/100/96 85/89/85
f 85/89/85 97/115/97 98/101/98
f 98/101/98 99/117/99 87/102/87
f 87/102/87 99/117/99 100/103/100
f 88/92/88 100/103/100 101/104/101
f 89/93/89 101/104/101 102/105/102
f 90/94/90 102/105/102 103/106/103
f 103/108/103 104/110/104 92/109/92
f 104/110/104 105/111/105 93/98/93
f 105/111/105 106/112/106 94/99/94
f 106/112/106 107/124/107 95/113/95
f 95/113/95 107/124/107 108/114/108
f 108/114/108 97/115/97 85/89/85
f 97/115/97 109/127/109 110/116/110
f 110/116/110 111/118/111 99/117/99
f 111/118/111 112/130/112 100/103/100
f 100/103/100 112/130/112 113/119/113
f 113/119/113 114/133/114 102/105/102
f 102/105/102 114/133/114 115/120/115
f 115/121/115 116/136/116 104/110/104
f 104/110/104 116/136/116 117/122/117
f 117/122/117 118/138/118 106/112/106
f 106/112/106 118/138/118 119/123/119
f 107/124/107 119/123/119 120/125/120
f 120/125/120 109/127/109 97/115/97
f 121/126/121 122/128/122 110/116/110
f 122/128/122 123/129/123 111/118/111
f 123/129/123 124/131/124 112/130/112
f 124/131/124 125/132/125 113/119/113
f 125/132/125 126/134/126 114/133/114
f 126/134/126 127/146/127 115/120/115
f 127/135/127 128/148/128 116/136/116
f 116/136/116 128/148/128 129/137/129
f 129/137/129 130/151/130 118/138/118
f 118/138/118 130/151/130 131/139/131
f 119/123/119 131/139/131 132/140/132
f 120/125/120 132/140/132 121/126/121
f 121/126/121 133/155/133 134/141/134
f 122/128/122 134/141/134 135/142/135
f 123/129/123 135/142/135 136/143/136
f 136/143/136 137/159/137 125/132/125
f 125/132/125 137/159/137 138/144/138
f 126/134/126 138/144/138 139/145/139
f 139/147/139 140/149/140 128/148/128
f 140/149/140 141/163/141 129/137/129
f 129/137/129 141/163/141 142/150/142
f 142/150/142 143/152/143 131/139/131
f 143/152/143 144/153/144 132/140/132
f 144/153/144 133/155/133 121/126/121
f 145/154/145 146/156/146 134/141/134
f 146/156/146 147/157/147 135/142/135
f 147/157/147 148/169/148 136/143/136
f 136/143/136 148/169/148 149/158/149
f 149/158/149 150/160/150 138/144/138
f 150/160/150 151/173/151 139/145/139
f 139/147/139 151/175/151 152/161/152
f 140/149/140 152/161/152 153/162/153
f 153/162/153 154/178/154 142/150/142
f 142/150/142 154/178/154 155/164/155
f 155/164/155 156/165/156 144/153/144
f 156/165/156 145/154/145 133/155/133
f 157/166/157 158/167/158 146/156/146
f 158/167/158 159/168/159 147/157/147
f 159/168/159 160/170/160 148/169/148
f 160/170/160 161/171/161 149/158/149
f 161/171/161 162/172/162 150/160/150
f 162/172/162 163/186/163 151/173/151
f 163/174/163 164/176/164 152/161/152
f 164/176/164 165/189/165 153/162/153
f 153/162/153 165/189/165 166/177/166
f 154/178/154 166/177/166 167/179/167
f 155/164/155 167/179/167 168/180/168
f 156/165/156 168/180/168 157/166/157
f 157/166/157 169/193/169 170/181/170
f 158/167/158 170/181/170 171/182/171
f 171/182/171 172/183/172 160/170/160
f 172/183/172 173/184/173 161/171/161
f 173/184/173 174/185/174 162/172/162
f 174/185/174 175/198/175 163/186/163
f 163/174/163 175/199/175 176/187/176
f 164/176/164 176/187/176 177/188/177
f 165/189/165 177/188/177 178/190/178
f 166/177/166 178/190/178 179/191/179
f 179/191/179 180/192/180 168/180/168
f 180/192/180 169/193/169 157/166/157
f 169/193/169 181/204/181 182/194/182
f 182/194/182 183/207/183 171/182/171
f 171/182/171 183/207/183 184/195/184
f 172/183/172 184/195/184 185/196/185
f 185/196/185 186/197/186 174/185/174
f 186/197/186 187/211/187 175/198/175
f 175/199/175 187/213/187 188/200/188
f 188/200/188 189/201/189 177/188/177
f 189/201/189 190/202/190 178/190/178
f 190/202/190 191/217/191 179/191/179
f 179/191/179 191/217/191 192/203/192
f 192/203/192 181/204/181 169/193/169
f 181/204/181 193/220/193 194/205/194
f 182/194/182 194/205/194 195/206/195
f 195/206/195 196/223/196 184/195/184
f 184/195/184 196/223/196 197/208/197
f 185/196/185 197/208/197 198/209/198
f 186/197/186 198/209/198 199/210/199
f 199/212/199 200/214/200 188/200/188
f 200/214/200 201/215/201 189/201/189
f 201/215/201 202/230/202 190/202/190
f 190/202/190 202/230/202 203/216/203
f 203/216/203 204/218/204 192/203/192
f 204/218/204 193/220/193 181/204/181
f 205/219/205 206/221/206 194/205/194
f 206/221/206 207/222/207 195/206/195
f 207/222/207 208/224/208 196/223/196
f 208/224/208 209/225/209 197/208/197
f 209/225/209 210/226/210 198/209/198
f 210/226/210 211/238/211 199/210/199
f 199/212/199 211/240/211 212/227/212
f 200/214/200 212/227/212 213/228/213
f 201/215/201 213/228/213 214/229/214
f 202/230/202 214/229/214 215/231/215
f 203/216/203 215/231/215 216/232/216
f 204/218/204 216/232/216 205/219/205
f 217/233/217 218/245/218 206/221/206
f 206/221/206 218/245/218 219/234/219
f 207/222/207 219/234/219 220/235/220
f 220/235/220 221/248/221 209/225/209
f 209/225/209 221/248/221 222/236/222
f 210/226/210 222/236/222 223/237/223
f 223/239/223 224/241/224 212/227/212
f 224/241/224 225/252/225 213/228/213
f 213/228/213 225/252/225 226/242/226
f 226/242/226 227/243/227 215/231/215
f 227/243/227 228/255/228 216/232/216
f 216/232/216 228/255/228 217/233/217
f 217/233/217 229/256/229 230/244/230
f 230/244/230 231/259/231 219/234/219
f 219/234/219 231/259/231 232/246/232
f 220/235/220 232/246/232 233/247/233
f 233/247/233 234/249/234 222/236/222
f 234/249/234 235/263/235 223/237/223
f 235/250/235 236/265/236 224/241/224
f 224/241/224 236/265/236 237/251/237
f 237/251/237 238/253/238 226/242/226
f 238/253/238 239/268/239 227/243/227
f 227/243/227 239/268/239 240/254/240
f 240/254/240 229/256/229 217/233/217
f 229/256/229 241/272/241 242/257/242
f 230/244/230 242/257/242 243/258/243
f 231/259/231 243/258/243 244/260/244
f 232/246/232 244/260/244 245/261/245
f 233/247/233 245/261/245 246/262/246
f 246/262/246 247/278/247 235/263/235
f 235/250/235 247/279/247 248/264/248
f 248/264/248 249/266/249 237/251/237
f 249/266/249 250/267/250 238/253/238
f 250/267/250 251/269/251 239/268/239
f 251/269/251 252/270/252 240/254/240
f 252/270/252 241/272/241 229/256/229
f 253/271/253 254/273/254 242/257/242
f 254/273/254 255/274/255 243/258/243
f 255/274/255 256/275/256 244/260/244
f 256/275/256 257/276/257 245/261/245
f 257/276/257 258/277/258 246/262/246
f 258/277/258 259/290/259 247/278/247
f 247/279/247 259/292/259 260/280/260
f 248/264/248 260/280/260 261/281/261
f 249/266/249 261/281/261 262/282/262
f 250/267/250 262/282/262 263/283/263
f 251/269/251 263/283/263 264/284/264
f 252/270/252 264/284/264 253/271/253
f 265/285/265 266/297/266 254/273/254
f 254/273/254 266/297/266 267/286/267
f 267/286/267 268/287/268 256/275/256
f 268/287/268 269/288/269 257/276/257
f 269/288/269 270/289/270 258/277/258
f 270/289/270 271/302/271 259/290/259
f 271/291/271 272/293/272 260/280/260
f 272/293/272 273/305/273 261/281/261
f 261/281/261 273/305/273 274/294/274
f 262/282/262 274/294/274 275/295/275
f 275/295/275 276/309/276 264/284/264
f 264/284/264 276/309/276 265/285/265
f 277/296/277 278/298/278 266/297/266
f 278/298/278 279/312/279 267/286/267
f 267/286/267 279/312/279 280/299/280
f 268/287/268 280/299/280 281/300/281
f 281/300/281 282/301/282 270/289/270
f 282/301/282 283/316/283 271/302/271
f 283/303/283 284/304/284 272/293/272
f 284/304/284 285/306/285 273/305/273
f 285/306/285 286/307/286 274/294/274
f 286/307/286 287/321/287 275/295/275
f 275/295/275 287/321/287 288/308/288
f 276/309/276 288/308/288 277/296/277
f 277/296/277 289/636/7 290/310/289
f 278/298/278 290/310/289 291/311/290
f 279/312/279 291/311/290 292/313/291
f 280/299/280 292/313/291 293/314/292
f 293/314/292 294/637/293 282/301/282
f 282/301/282 294/637/293 295/315/1
f 295/317/1 296/318/294 284/304/284
f 296/318/294 297/319/295 285/306/285
f 297/319/295 298/320/296 286/307/286
f 298/320/296 299/322/297 287/321/287
f 299/322/297 300/323/298 288/308/288
f 300/323/298 289/636/7 277/296/277
f 301/324/19 302/327/299 290/325/289
f 302/327/299 303/329/300 291/328/290
f 303/329/300 304/331/301 292/330/291
f 304/331/301 305/333/302 293/332/292
f 305/333/302 306/335/303 294/334/293
f 306/335/303 307/353/13 295/336/1
f 307/337/13 308/340/304 296/338/294
f 308/340/304 309/356/305 297/341/295
f 297/341/295 309/356/305 310/342/306
f 298/343/296 310/342/306 311/344/307
f 299/345/297 311/344/307 312/346/308
f 300/347/298 312/346/308 301/324/19
f 301/324/19 313/361/31 314/348/309
f 302/327/299 314/348/309 315/349/310
f 315/349/310 316/350/311 304/331/301
f 316/350/311 317/351/312 305/333/302
f 317/351/312 318/352/313 306/335/303
f 318/352/313 319/366/25 307/353/13
f 319/354/25 320/355/314 308/340/304
f 320/355/314 321/369/315 309/356/305
f 309/356/305 321/369/315 322/357/316
f 310/342/306 322/357/316 323/358/317
f 323/358/317 324/359/318 312/346/308
f 324/359/318 313/361/31 301/324/19
f 325/360/43 326/362/319 314/348/309
f 326/362/319 327/374/320 315/349/310
f 315/349/310 327/374/320 328/363/321
f 316/350/311 328/363/321 329/364/322
f 329/364/322 330/365/323 318/352/313
f 330/365/323 331/379/37 319/366/25
f 319/354/25 331/381/37 332/367/324
f 320/355/314 332/367/324 333/368/325
f 333/368/325 334/370/326 322/357/316
f 334/370/326 335/385/327 323/358/317
f 323/358/317 335/385/327 336/371/328
f 324/359/318 336/371/328 325/360/43
f 325/360/43 337/389/55 338/372/329
f 326/362/319 338/372/329 339/373/330
f 327/374/320 339/373/330 340/375/331
f 328/363/321 340/375/331 341/376/332
f 329/364/322 341/376/332 342/377/333
f 330/365/323 342/377/333 343/378/49
f 343/380/49 344/382/334 332/367/324
f 344/382/334 345/383/335 333/368/325
f 345/383/335 346/384/336 334/370/326
f 346/384/336 347/386/337 335/385/327
f 347/386/337 348/387/338 336/371/328
f 348/387/338 337/389/55 325/360/43
f 349/388/67 350/390/339 338/372/329
f 350/390/339 351/391/340 339/373/330
f 351/391/340 352/392/341 340/375/331
f 352/392/341 353/393/342 341/376/332
f 353/393/342 354/394/343 342/377/333
f 354/394/343 355/404/61 343/378/49
f 343/380/49 355/406/61 356/395/344
f 344/382/334 356/395/344 357/396/345
f 345/383/335 357/396/345 358/397/346
f 346/384/336 358/397/346 359/398/347
f 347/386/337 359/398/347 360/399/348
f 348/387/338 360/399/348 349/388/67
f 361/400/79 362/411/349 350/390/339
f 350/390/339 362/411/349 363/401/350
f 363/401/350 364/402/351 352/392/341
f 364/402/351 365/414/352 353/393/342
f 353/393/342 365/414/352 366/403/353
f 366/403/353 367/417/73 355/404/61
f 367/405/73 368/407/354 356/395/344
f 368/407/354 369/420/355 357/396/345
f 357/396/345 369/420/355 370/408/356
f 358/397/346 370/408/356 371/409/357
f 371/409/357 372/424/358 360/399/348
f 360/399/348 372/424/358 361/400/79
f 373/410/91 374/426/359 362/411/349
f 362/411/349 374/426/359 375/412/360
f 375/412/360 376/413/361 364/402/351
f 376/413/361 377/415/362 365/414/352
f 377/415/362 378/431/363 366/403/353
f 366/403/353 378/431/363 379/416/85
f 379/418/85 380/419/364 368/407/354
f 380/419/364 381/421/365 369/420/355
f 381/421/365 382/422/366 370/408/356
f 382/422/366 383/423/367 371/409/357
f 383/423/367 384/438/368 372/424/358
f 372/424/358 384/438/368 373/410/91
f 385/425/103 386/440/369 374/426/359
f 374/426/359 386/440/369 387/427/370
f 375/412/360 387/427/370 388/428/371
f 376/413/361 388/428/371 389/429/372
f 377/415/362 389/429/372 390/430/373
f 378/431/363 390/430/373 391/432/97
f 391/433/97 392/434/374 380/419/364
f 392/434/374 393/435/375 381/421/365
f 393/435/375 394/436/376 382/422/366
f 394/436/376 395/437/377 383/423/367
f 395/437/377 396/449/378 384/438/368
f 384/438/368 396/449/378 385/425/103
f 397/439/115 398/441/379 386/440/369
f 398/441/379 399/452/380 387/427/370
f 387/427/370 399/452/380 400/442/381
f 400/442/381 401/443/382 389/429/372
f 401/443/382 402/444/383 390/430/373
f 402/444/383 403/457/109 391/432/97
f 391/433/97 403/459/109 404/445/384
f 392/434/374 404/445/384 405/446/385
f 393/435/375 405/446/385 406/447/386
f 406/447/386 407/463/387 395/437/377
f 395/437/377 407/463/387 408/448/388
f 396/449/378 408/448/388 397/439/115
f 409/450/127 410/451/389 398/441/379
f 410/451/389 411/453/390 399/452/380
f 411/453/390 412/468/391 400/442/381
f 400/442/381 412/468/391 413/454/392
f 401/443/382 413/454/392 414/455/393
f 402/444/383 414/455/393 415/456/121
f 415/458/121 416/460/394 404/445/384
f 416/460/394 417/461/395 405/446/385
f 417/461/395 418/475/396 406/447/386
f 406/447/386 418/475/396 419/462/397
f 419/462/397 420/464/398 408/448/388
f 420/464/398 409/450/127 397/439/115
f 421/465/139 422/466/399 410/451/389
f 422/466/399 423/467/400 411/453/390
f 423/467/400 424/469/401 412/468/391
f 424/469/401 425/470/402 413/454/392
f 425/470/402 426/471/403 414/455/393
f 426/471/403 427/483/133 415/456/121
f 415/458/121 427/485/133 428/472/404
f 416/460/394 428/472/404 429/473/405
f 417/461/395 429/473/405 430/474/406
f 418/475/396 430/474/406 431/476/407
f 419/462/397 431/476/407 432/477/408
f 420/464/398 432/477/408 421/465/139
f 421/465/139 433/492/151 434/478/409
f 422/466/399 434/478/409 435/479/410
f 423/467/400 435/479/410 436/480/411
f 424/469/401 436/480/411 437/481/412
f 425/470/402 437/481/412 438/482/413
f 438/482/413 439/497/145 427/483/133
f 439/484/145 440/486/414 428/472/404
f 440/486/414 441/487/415 429/473/405
f 441/487/415 442/488/416 430/474/406
f 442/488/416 443/489/417 431/476/407
f 443/489/417 444/490/418 432/477/408
f 444/490/418 433/492/151 421/465/139
f 445/491/163 446/493/419 434/478/409
f 446/493/419 447/505/420 435/479/410
f 435/479/410 447/505/420 448/494/421
f 448/494/421 449/508/422 437/481/412
f 437/481/412 449/508/422 450/495/423
f 438/482/413 450/495/423 451/496/157
f 451/498/157 452/499/424 440/486/414
f 452/499/424 453/512/425 441/487/415
f 441/487/415 453/512/425 454/500/426
f 454/500/426 455/501/427 443/489/417
f 455/501/427 456/502/428 444/490/418
f 456/502/428 445/491/163 433/492/151
f 457/503/175 458/504/429 446/493/419
f 458/504/429 459/506/430 447/505/420
f 459/506/430 460/507/431 448/494/421
f 460/507/431 461/509/432 449/508/422
f 461/509/432 462/510/433 450/495/423
f 462/510/433 463/520/169 451/496/157
f 451/498/157 463/521/169 464/511/434
f 464/511/434 465/523/435 453/512/425
f 453/512/425 465/523/435 466/513/436
f 454/500/426 466/513/436 467/514/437
f 455/501/427 467/514/437 468/515/438
f 456/502/428 468/515/438 457/503/175
f 457/503/175 469/529/187 470/516/439
f 470/516/439 471/531/440 459/506/430
f 459/506/430 471/531/440 472/517/441
f 460/507/431 472/517/441 473/518/442
f 461/509/432 473/518/442 474/519/443
f 474/519/443 475/534/181 463/520/169
f 463/521/169 475/535/181 476/522/444
f 476/522/444 477/524/445 465/523/435
f 477/524/445 478/525/446 466/513/436
f 478/525/446 479/526/447 467/514/437
f 479/526/447 480/527/448 468/515/438
f 480/527/448 469/529/187 457/503/175
f 481/528/199 482/540/449 470/516/439
f 470/516/439 482/540/449 483/530/450
f 471/531/440 483/530/450 484/532/451
f 484/532/451 485/544/452 473/518/442
f 473/518/442 485/544/452 486/533/453
f 486/533/453 487/547/193 475/534/181
f 475/535/181 487/549/193 488/536/454
f 488/536/454 489/551/455 477/524/445
f 477/524/445 489/551/455 490/537/456
f 490/537/456 491/538/457 479/526/447
f 491/538/457 492/555/458 480/527/448
f 480/527/448 492/555/458 481/528/199
f 493/539/211 494/541/459 482/540/449
f 494/541/459 495/542/460 483/530/450
f 495/542/460 496/543/461 484/532/451
f 496/543/461 497/545/462 485/544/452
f 497/545/462 498/546/463 486/533/453
f 498/546/463 499/562/205 487/547/193
f 499/548/205 500/564/464 488/536/454
f 488/536/454 500/564/464 501/550/465
f 489/551/455 501/550/465 502/552/466
f 490/537/456 502/552/466 503/553/467
f 491/538/457 503/553/467 504/554/468
f 492/555/458 504/554/468 493/539/211
f 493/539/211 505/571/223 506/556/469
f 494/541/459 506/556/469 507/557/470
f 495/542/460 507/557/470 508/558/471
f 496/543/461 508/558/471 509/559/472
f 497/545/462 509/559/472 510/560/473
f 498/546/463 510/560/473 511/561/217
f 511/563/217 512/565/474 500/564/464
f 512/565/474 513/566/475 501/550/465
f 513/566/475 514/567/476 502/552/466
f 514/567/476 515/568/477 503/553/467
f 515/568/477 516/569/478 504/554/468
f 516/569/478 505/571/223 493/539/211
f 517/570/235 518/581/479 506/556/469
f 506/556/469 518/581/479 519/572/480
f 507/557/470 519/572/480 520/573/481
f 520/573/481 521/574/482 509/559/472
f 521/574/482 522/584/483 510/560/473
f 510/560/473 522/584/483 523/575/229
f 523/576/229 524/587/484 512/565/474
f 512/565/474 524/587/484 525/577/485
f 513/566/475 525/577/485 526/578/486
f 526/578/486 527/579/487 515/568/477
f 527/579/487 528/590/488 516/569/478
f 516/569/478 528/590/488 517/570/235
f 529/580/247 530/592/489 518/581/479
f 518/581/479 530/592/489 531/582/490
f 531/582/490 532/594/491 520/573/481
f 520/573/481 532/594/491 533/583/492
f 533/583/492 534/597/493 522/584/483
f 522/584/483 534/597/493 535/585/241
f 535/586/241 536/600/494 524/587/484
f 524/587/484 536/600/494 537/588/495
f 537/588/495 538/603/496 526/578/486
f 526/578/486 538/603/496 539/589/497
f 539/589/497 540/606/498 528/590/488
f 528/590/488 540/606/498 529/580/247
f 529/580/247 541/608/259 542/591/499
f 542/591/499 543/593/500 531/582/490
f 543/593/500 544/595/501 532/594/491
f 544/595/501 545/596/502 533/583/492
f 545/596/502 546/612/503 534/597/493
f 534/597/493 546/612/503 547/598/253
f 547/599/253 548/601/504 536/600/494
f 548/601/504 549/616/505 537/588/495
f 537/588/495 549/616/505 550/602/506
f 538/603/496 550/602/506 551/604/507
f 539/589/497 551/604/507 552/605/508
f 552/605/508 541/608/259 529/580/247
f 553/607/271 554/621/509 542/591/499
f 542/591/499 554/621/509 555/609/510
f 555/609/510 556/610/511 544/595/501
f 556/610/511 557/611/512 545/596/502
f 557/611/512 558/613/513 546/612/503
f 558/613/513 559/627/265 547/598/253
f 559/614/265 560/629/514 548/601/504
f 548/601/504 560/629/514 561/615/515
f 549/616/505 561/615/515 562/617/516
f 550/602/506 562/617/516 563/618/517
f 563/618/517 564/619/518 552/605/508
f 564/619/518 553/607/271 541/608/259
f 553/607/271 565/635/283 566/620/519
f 554/621/509 566/620/519 567/622/520
f 555/609/510 567/622/520 568/623/521
f 556/610/511 568/623/521 569/624/522
f 557/611/512 569/624/522 570/625/523
f 558/613/513 570/625/523 571/626/277
f 571/628/277 572/630/524 560/629/514
f 572/630/524 573/631/525 561/615/515
f 573/631/525 574/632/526 562/617/516
f 574/632/526 575/633/527 563/618/517
f 575/633/527 576/634/528 564/619/518
f 576/634/528 565/635/283 553/607/271
f 1/3/1 2/2/2 566/620/519
f 2/2/2 3/5/3 567/622/520
f 3/5/3 4/7/4 568/623/521
f 4/7/4 5/9/5 569/624/522
f 5/9/5 6/11/6 570/625/523
f 6/11/6 7/13/7 571/626/277
f 571/628/277 7/16/7 8/15/8
f 572/630/524 8/15/8 9/18/9
f 573/631/525 9/18/9 10/20/10
f 574/632/526 10/20/10 11/22/11
f 11/22/11 12/24/12 576/634/528
f 12/24/12 1/3/1 565/635/283
