# Blender 5.0.1
# www.blender.org
o Cube
v -0.298654 0.500000 0.298654
v -0.500000 -0.500000 0.500000
v -0.298654 0.500000 -0.298654
v -0.500000 -0.500000 -0.500000
v 0.298654 0.500000 0.298654
v 0.500000 -0.500000 0.500000
v 0.298654 0.500000 -0.298654
v 0.500000 -0.500000 -0.500000
v -0.500000 0.500000 -0.500000
v 0.500000 0.500000 -0.500000
v -0.500000 0.500000 0.500000
v 0.500000 0.500000 0.500000
v -0.298654 0.940837 -0.298654
v 0.298654 0.940837 -0.298654
v -0.298654 0.940837 0.298654
v 0.298654 0.940837 0.298654
vn -0.0000 -0.0000 -1.0000
vn 1.0000 -0.0000 -0.0000
vn -0.0000 -1.0000 -0.0000
vn -1.0000 -0.0000 -0.0000
vn -0.0000 -0.0000 1.0000
vn -0.0000 1.0000 -0.0000
vt 0.675336 0.699664
vt 0.824664 0.699663
vt 0.625000 0.750000
vt 0.375000 1.000000
vt 0.375000 0.750000
vt 0.625000 0.000000
vt 0.375000 0.250000
vt 0.375000 0.000000
vt 0.375000 0.500000
vt 0.125000 0.750000
vt 0.125000 0.500000
vt 0.625000 0.500000
vt 0.625000 0.250000
vt 0.675337 0.550337
vt 0.824664 0.550337
vt 0.875000 0.750000
vt 0.875000 0.500000
vt 0.625000 1.000000
s 0
f 3/1/1 14/2/1 7/2/1
f 9/3/1 8/4/1 4/5/1
f 10/6/2 6/7/2 8/8/2
f 2/9/3 8/10/3 6/11/3
f 11/12/4 4/5/4 2/9/4
f 12/13/5 2/9/5 6/7/5
f 7/2/6 9/3/6 3/1/6
f 3/1/6 11/12/6 1/14/6
f 5/15/6 10/16/6 7/2/6
f 1/14/6 12/17/6 5/15/6
f 16/15/6 13/1/6 15/14/6
f 5/15/5 15/14/5 1/14/5
f 1/14/4 13/1/4 3/1/4
f 7/2/2 16/15/2 5/15/2
f 3/1/1 13/1/1 14/2/1
f 9/3/1 10/18/1 8/4/1
f 10/6/2 12/13/2 6/7/2
f 2/9/3 4/5/3 8/10/3
f 11/12/4 9/3/4 4/5/4
f 12/13/5 11/12/5 2/9/5
f 7/2/6 10/16/6 9/3/6
f 3/1/6 9/3/6 11/12/6
f 5/15/6 12/17/6 10/16/6
f 1/14/6 11/12/6 12/17/6
f 16/15/6 14/2/6 13/1/6
f 5/15/5 16/15/5 15/14/5
f 1/14/4 15/14/4 13/1/4
f 7/2/2 14/2/2 16/15/2
