# Blender 5.0.1
# www.blender.org
mtllib tree.mtl
o NewTrees.011
v -1.690457 1.980517 -0.945291
v -1.674601 1.944022 -0.382507
v -1.605826 1.934902 -0.188737
v -1.591921 2.292847 -0.795771
v -1.499221 2.367157 -0.554751
v -1.434782 1.679092 -0.540396
v -1.347166 1.843552 -1.523002
v -1.341780 2.258752 -1.240132
v -1.321456 2.031052 0.348308
v -1.316822 2.372692 0.064238
v -1.300440 2.516662 -0.180967
v -1.263885 1.784497 0.167094
v -1.241460 1.599997 -0.907612
v -1.230031 1.683952 -1.328046
v -1.203856 2.615797 -0.884886
v -1.161091 1.886017 0.333954
v -1.151011 1.807372 0.648533
v -1.088730 2.651977 -0.097236
v -1.083271 1.836382 -1.692261
v -1.032811 2.133157 0.424268
v -1.019881 1.621597 0.567804
v -1.005827 2.091007 0.649133
v -0.960301 2.753947 -0.889671
v -0.947295 1.727377 0.966698
v -0.941536 1.613527 -1.335217
v -0.930841 1.751002 0.100119
v -0.892051 1.658977 -0.385507
v -0.877921 2.346217 -1.430902
v -0.875822 2.613547 0.206572
v -0.858706 1.544077 0.854258
v -0.830371 1.974232 1.033689
v -0.773342 1.817092 -1.813657
v -0.742981 2.231392 -1.622286
v -0.717151 1.661152 1.144913
v -0.689791 2.620732 -1.277211
v -0.677760 1.923847 1.149698
v -0.572056 2.742427 0.266978
v -0.561737 2.228107 0.795053
v -0.553966 2.919157 -0.206692
v -0.522196 0.009727 0.085764
v -0.506145 1.775827 -1.899187
v -0.500026 1.694497 -0.197722
v -0.493441 1.440547 0.966698
v -0.492015 2.926042 -0.800556
v -0.462375 1.538242 0.475704
v -0.446491 1.657342 -1.454226
v -0.431730 0.009022 0.390174
v -0.366077 2.227657 -1.706617
v -0.354497 2.377477 -1.490706
v -0.351166 1.683877 -0.969801
v -0.350236 1.627807 1.289048
v -0.327482 0.218287 0.290889
v -0.325801 1.863142 1.284863
v -0.295756 2.361922 0.513369
v -0.260956 0.003562 -0.096637
v -0.248387 0.509317 -0.047601
v -0.236070 2.757382 -1.149216
v -0.218641 -0.000368 0.393158
v -0.207167 0.946132 -0.282637
v -0.190607 2.297932 0.757974
v -0.184531 1.425142 0.829149
v -0.177435 2.130772 1.073153
v -0.171227 0.579187 -0.253342
v -0.170821 1.240792 0.280734
v -0.159166 0.574687 0.194004
v -0.157050 0.258742 -0.244357
v -0.149626 1.090822 -0.287422
v -0.136051 0.003037 0.581558
v -0.130920 1.241467 0.667673
v -0.128370 1.736797 -1.716772
v -0.123796 0.951592 0.031344
v -0.119956 1.488157 0.561218
v -0.110641 0.929167 -0.518872
v -0.110446 1.297387 -0.574492
v -0.106875 2.639722 -1.304121
v -0.106201 1.125442 0.339939
v -0.096180 1.288777 -0.149271
v -0.094591 1.648522 -0.410031
v -0.091980 1.407652 0.350709
v -0.080506 1.842502 -1.911741
v -0.069677 1.341487 -0.686331
v -0.065026 1.001752 0.105503
v -0.064697 1.623922 -0.285622
v -0.062565 2.989282 -0.398661
v -0.059252 1.728202 -0.776031
v -0.058426 0.004087 -0.727596
v -0.022380 1.736062 -0.612172
v -0.012796 1.430677 1.142528
v 0.015734 1.397557 -0.488962
v 0.018674 2.277892 -1.683292
v 0.023909 0.009997 0.634179
v 0.024630 1.252522 0.723293
v 0.031169 1.475002 0.567804
v 0.039194 1.391647 0.989424
v 0.043784 1.749367 -0.550567
v 0.058334 1.061377 -0.643266
v 0.069314 2.947267 -0.127747
v 0.072434 1.749367 -0.839437
v 0.074819 0.269842 0.456564
v 0.075343 1.390087 -0.478807
v 0.075585 1.655242 1.328528
v 0.075719 1.589977 -0.213261
v 0.087014 0.378217 -0.307162
v 0.097754 0.526072 -0.310747
v 0.098820 1.416022 0.821964
v 0.101624 0.877777 0.117459
v 0.120329 1.903507 1.281879
v 0.139378 -0.002498 0.540878
v 0.149174 1.308067 -0.129531
v 0.151005 1.768507 -0.695302
v 0.151498 1.281832 0.493043
v 0.164400 1.352107 0.410514
v 0.165029 1.413997 -0.684532
v 0.177494 1.185022 -0.372352
v 0.183538 0.366502 -0.276667
v 0.187588 1.622872 -0.308946
v 0.191624 1.230847 0.483473
v 0.193829 1.723192 -0.451296
v 0.200309 1.281832 -0.550567
v 0.204749 0.007447 -0.702471
v 0.221610 1.194517 -0.280851
v 0.223110 0.863572 -0.463252
v 0.244408 2.683972 -1.326846
v 0.245265 2.297032 0.766943
v 0.246509 1.321672 0.054668
v 0.260625 0.900607 0.054069
v 0.262243 1.523227 1.234029
v 0.269970 1.094647 0.304058
v 0.276105 0.030697 0.554634
v 0.278758 0.478477 -0.196522
v 0.281789 1.492717 0.455963
v 0.283318 0.552457 0.199989
v 0.283318 0.896422 -0.324501
v 0.292844 -0.000368 -0.432156
v 0.295919 0.982537 -0.066142
v 0.304994 2.155297 1.031289
v 0.339044 1.911727 -1.884231
v 0.349290 2.406022 -1.622286
v 0.353399 2.360122 0.512183
v 0.367078 1.828012 -1.702431
v 0.372764 0.538342 0.003234
v 0.372840 1.460647 0.643149
v 0.373995 0.101602 -0.099036
v 0.375420 1.393372 0.298674
v 0.378749 -0.005603 -0.085881
v 0.381628 2.712682 0.275348
v 0.400994 1.819477 -0.603202
v 0.401099 2.903902 -0.895642
v 0.403708 1.398007 0.142584
v 0.451258 0.010327 0.406914
v 0.461805 1.235932 0.330968
v 0.463153 1.229647 0.513968
v 0.474735 1.506397 0.395559
v 0.478215 1.623247 -0.387292
v 0.522060 1.301497 0.161123
v 0.540825 1.847002 1.214888
v 0.561224 0.033202 0.215544
v 0.563325 0.008752 0.079179
v 0.563548 1.422967 0.922449
v 0.565259 1.832647 -1.130092
v 0.576929 2.911687 -0.212061
v 0.592559 1.488007 0.587529
v 0.634183 1.575697 1.139543
v 0.638010 2.876242 -0.085881
v 0.658109 2.287012 0.415298
v 0.680234 1.876297 -1.300537
v 0.705134 2.520412 -1.372896
v 0.715229 2.240512 -1.561881
v 0.716504 2.186242 0.750803
v 0.762104 1.961077 1.034873
v 0.766064 1.906957 -0.455481
v 0.822059 1.588627 -0.140902
v 0.834089 1.657042 -0.316131
v 0.850694 2.435632 0.294488
v 0.864899 1.785697 -0.391492
v 0.881114 2.228407 0.256208
v 0.917894 1.590577 0.855458
v 0.943904 1.784347 0.956529
v 0.946904 2.158732 0.054668
v 0.950489 2.130172 0.603084
v 0.964169 1.997707 -0.199507
v 0.985844 2.371192 -1.257472
v 1.000799 2.094442 -1.076257
v 1.011494 1.570462 0.578559
v 1.044239 1.601347 0.219129
v 1.046024 2.053327 -0.319716
v 1.053209 2.614897 -0.708456
v 1.085879 2.455222 -0.085881
v 1.090889 2.083822 -0.886072
v 1.113689 1.833832 0.644348
v 1.119809 1.819042 -0.084082
v 1.149719 2.366407 -0.498532
v 1.188734 1.831297 0.234684
vn 0.1165 -0.1581 0.9805
vn -0.1788 0.3460 0.9211
vn -0.2210 -0.5389 0.8128
vn -0.4331 -0.4315 0.7914
vn 0.0742 0.4893 0.8689
vn -0.0801 0.7777 0.6235
vn -0.0401 -0.8298 0.5566
vn -0.3817 0.4053 0.8307
vn -0.2391 -0.9504 0.1990
vn 0.1749 -0.7353 0.6548
vn -0.7547 -0.1925 0.6272
vn -0.4906 0.6558 0.5738
vn -0.4226 -0.9001 0.1058
vn -0.9357 0.0334 0.3513
vn -0.2639 0.8867 0.3796
vn -0.5914 0.7034 0.3943
vn -0.4362 0.6353 0.6373
vn -0.4470 -0.8736 -0.1922
vn -0.7823 -0.5653 0.2615
vn -0.2148 -0.9542 -0.2084
vn -0.2287 -0.9668 -0.1143
vn -0.6473 0.2626 0.7156
vn -0.2125 0.7364 0.6423
vn -0.3273 -0.8977 0.2951
vn -0.9290 -0.0085 0.3700
vn -0.1084 0.7111 0.6947
vn 0.1610 0.7181 0.6771
vn -0.0607 0.9269 0.3703
vn 0.1450 0.6977 0.7016
vn 0.5071 0.5541 0.6602
vn 0.1041 0.9302 0.3520
vn 0.1529 0.7816 0.6048
vn 0.3689 0.8339 0.4105
vn 0.8872 0.1645 0.4311
vn 0.6469 0.7099 0.2786
vn 0.2883 0.8660 0.4087
vn 0.4640 0.6314 0.6213
vn 0.3511 0.2487 0.9027
vn 0.7324 0.1258 0.6692
vn 0.9416 0.0741 0.3286
vn 0.4417 -0.4446 0.7793
vn 0.6682 -0.6238 0.4055
vn 0.4722 -0.8813 0.0191
vn 0.1858 -0.9732 0.1356
vn 0.3186 -0.9458 -0.0628
vn -0.1157 -0.9569 0.2663
vn -0.0000 -1.0000 -0.0075
vn 0.3497 -0.9339 0.0747
vn -0.1115 -0.9671 -0.2285
vn 0.8187 0.3147 -0.4803
vn -0.6671 -0.7408 0.0783
vn -0.1152 -0.9722 -0.2036
vn -0.0391 -0.9979 -0.0526
vn -0.4710 -0.8760 -0.1038
vn -0.0608 -0.9961 -0.0633
vn -0.2417 -0.9594 0.1453
vn -0.8668 -0.0333 -0.4976
vn -0.0764 -0.9815 0.1753
vn 0.0910 -0.9957 0.0188
vn -0.1742 -0.9843 -0.0292
vn -0.4647 -0.8818 0.0802
vn -0.9878 -0.1030 0.1168
vn -0.9212 -0.3405 -0.1882
vn -0.8310 -0.1636 -0.5316
vn -0.3239 -0.8819 -0.3425
vn -0.4860 -0.0593 -0.8720
vn -0.5091 0.6029 -0.6143
vn -0.1098 -0.9530 -0.2823
vn 0.1085 -0.9906 -0.0834
vn -0.1180 -0.6897 -0.7144
vn -0.2446 0.4044 -0.8813
vn 0.2832 -0.9591 -0.0052
vn 0.2384 -0.9602 -0.1454
vn 0.2116 -0.8258 -0.5227
vn -0.6000 -0.7424 -0.2982
vn -0.7157 -0.1071 -0.6901
vn -0.9736 0.2281 -0.0058
vn 0.1417 -0.9525 -0.2697
vn 0.4782 -0.1435 -0.8665
vn 0.0069 0.1641 -0.9864
vn 0.2316 -0.8152 0.5308
vn -0.6585 -0.6863 0.3089
vn 0.7946 0.2928 0.5319
vn -0.0789 0.9922 -0.0967
vn -0.0189 -0.7665 0.6419
vn -0.2030 -0.9099 0.3617
vn -0.9991 0.0420 0.0077
vn -0.2416 -0.7462 0.6203
vn 0.3106 -0.7099 0.6321
vn 0.9088 -0.4171 -0.0024
vn 0.3058 -0.7749 0.5531
vn 0.7557 -0.4786 0.4470
vn -0.0477 0.1095 0.9928
vn -0.9164 0.0748 0.3931
vn -0.5532 0.4412 0.7066
vn -0.9612 0.2419 -0.1328
vn -0.9908 0.1051 -0.0858
vn -0.6590 -0.2211 -0.7189
vn -0.9845 0.1726 -0.0321
vn -0.7191 0.6610 0.2143
vn -0.3030 0.9234 -0.2355
vn 0.3067 0.9347 0.1797
vn 0.0005 0.5020 0.8649
vn -0.4868 -0.5622 0.6685
vn 0.1415 0.3211 0.9364
vn 0.0867 -0.9676 0.2371
vn -0.2092 -0.9417 0.2636
vn -0.7153 0.5209 0.4657
vn 0.0404 -0.9990 -0.0164
vn 0.6067 0.4561 0.6511
vn 0.3858 0.4094 0.8268
vn 0.6733 -0.4799 0.5625
vn 0.8666 0.3802 0.3232
vn 0.9685 0.1798 -0.1722
vn 0.8607 -0.2137 -0.4620
vn 0.8458 0.2391 -0.4769
vn 0.3891 -0.9116 -0.1324
vn 0.7733 -0.0799 -0.6289
vn 0.6522 0.4852 -0.5825
vn 0.7438 0.3709 -0.5561
vn 0.0411 -0.4523 -0.8909
vn -0.1688 0.5959 -0.7852
vn 0.9844 0.1755 0.0140
vn 0.8607 0.5057 -0.0594
vn 0.6623 -0.7249 -0.1894
vn 0.9132 -0.0879 -0.3979
vn 0.1009 -0.9849 -0.1409
vn 0.1114 -0.9588 -0.2613
vn 0.5142 -0.7000 -0.4956
vn 0.0461 -0.8747 -0.4825
vn 0.5604 -0.2816 -0.7789
vn 0.2050 -0.9210 -0.3314
vn 0.9571 -0.2151 0.1942
vn 0.9552 0.0878 -0.2826
vn 0.4937 -0.5238 -0.6942
vn 0.7299 -0.0071 -0.6835
vn 0.0960 -0.6945 -0.7131
vn -0.7481 0.5438 0.3803
vn 0.6430 -0.6874 0.3378
vn 0.5511 -0.7877 -0.2754
vn 0.9448 -0.0183 -0.3272
vn 0.7662 -0.6342 0.1034
vn 0.8706 0.3925 0.2966
vn 0.9989 0.0416 -0.0238
vn 0.6340 0.7587 -0.1498
vn 0.8706 0.2440 -0.4272
vn 0.7945 -0.6000 -0.0936
vn 0.7547 -0.4165 -0.5069
vn 0.6448 0.1216 -0.7546
vn 0.5812 -0.7675 -0.2705
vn 0.1974 0.8695 -0.4528
vn 0.9133 -0.0127 -0.4070
vn -0.0388 0.9638 -0.2639
vn 0.4836 0.6910 -0.5372
vn 0.9680 0.1807 -0.1743
vn 0.9478 0.3141 -0.0550
vn 0.9761 0.1483 -0.1591
vn 0.9480 0.2615 0.1816
vn 0.7559 -0.2492 -0.6054
vn 0.8058 -0.1156 -0.5808
vn 0.1168 -0.4461 -0.8873
vn -0.5808 -0.3877 -0.7158
vn -0.7127 -0.0158 0.7013
vn -0.9480 -0.2162 -0.2337
vn -0.3939 -0.8816 -0.2601
vn -0.7903 0.3104 -0.5282
vn -0.5100 -0.6951 -0.5067
vn -0.4834 0.6414 0.5957
vn -0.7406 0.4906 0.4591
vn -0.7427 0.6361 0.2092
vn -0.4702 0.8662 0.1691
vn -0.7929 0.5970 0.1223
vn -0.5483 0.7951 -0.2591
vn -0.7641 0.5350 -0.3603
vn -0.4017 0.9099 -0.1037
vn -0.2629 0.7458 -0.6121
vn -0.2611 0.9526 0.1562
vn -0.1321 0.9528 -0.2734
vn -0.0009 0.9200 0.3920
vn 0.0095 0.9998 -0.0187
vn 0.4755 0.8064 0.3517
vn 0.2869 0.9580 -0.0043
vn 0.2221 0.9438 -0.2446
vn 0.4099 0.7525 -0.5155
vn -0.0297 0.8166 -0.5765
vn 0.1801 0.5689 -0.8024
vn -0.1245 0.6153 -0.7784
vn -0.0990 0.8317 -0.5463
vn -0.0372 0.6467 -0.7619
vn -0.1068 0.7185 -0.6873
vn -0.1193 0.5269 -0.8415
vn -0.2677 0.6246 -0.7336
vn -0.3318 0.6274 -0.7045
vt 0.465332 0.233398
vt 0.461182 0.243652
vt 0.457031 0.238770
vt 0.450684 0.245850
vt 0.470947 0.241455
vt 0.468018 0.251709
vt 0.456787 0.229248
vt 0.454834 0.250977
vt 0.446533 0.235596
vt 0.466064 0.229736
vt 0.446045 0.251221
vt 0.451660 0.255371
vt 0.442627 0.245850
vt 0.438965 0.257568
vt 0.458496 0.262695
vt 0.445312 0.263184
vt 0.441162 0.267822
vt 0.435791 0.251465
vt 0.432373 0.261719
vt 0.433350 0.234863
vt 0.424805 0.251953
vt 0.433105 0.268066
vt 0.456787 0.277344
vt 0.427002 0.262939
vt 0.417969 0.274170
vt 0.463135 0.268799
vt 0.482666 0.270752
vt 0.468262 0.261230
vt 0.482666 0.263916
vt 0.495117 0.262451
vt 0.479736 0.258789
vt 0.479248 0.248291
vt 0.491943 0.256836
vt 0.498047 0.255859
vt 0.494385 0.241455
vt 0.488525 0.245850
vt 0.484375 0.237305
vt 0.478760 0.235107
vt 0.486328 0.228271
vt 0.494385 0.224121
vt 0.474854 0.227783
vt 0.480469 0.223389
vt 0.481201 0.218262
vt 0.467041 0.222900
vt 0.468506 0.217529
vt 0.460449 0.220703
vt 0.454346 0.226562
vt 0.453369 0.221924
vt 0.462646 0.217529
vt 0.456055 0.215820
vt 0.446533 0.226807
vt 0.438721 0.225586
vt 0.434326 0.217041
vt 0.438477 0.222168
vt 0.418213 0.221924
vt 0.415283 0.226074
vt 0.417725 0.240967
vt 0.407715 0.226074
vt 0.412354 0.224365
vt 0.412842 0.253418
vt 0.397217 0.237061
vt 0.399170 0.261475
vt 0.409180 0.266113
vt 0.413330 0.274414
vt 0.398438 0.274902
vt 0.382568 0.266113
vt 0.386719 0.261719
vt 0.371338 0.263428
vt 0.375244 0.273438
vt 0.384766 0.255615
vt 0.383057 0.242432
vt 0.370117 0.238525
vt 0.370117 0.250244
vt 0.386719 0.217285
vt 0.372559 0.222900
vt 0.397705 0.225586
vt 0.401855 0.228760
vt 0.401367 0.221924
vt 0.401367 0.220703
vt 0.374023 0.232910
vt 0.367188 0.224365
vt 0.369385 0.232910
vt 0.252686 0.978760
vt 0.259033 0.981201
vt 0.254395 0.988037
vt 0.250000 0.981934
vt 0.252686 0.972412
vt 0.259033 0.975586
vt 0.256592 0.971924
vt 0.258789 0.967041
vt 0.260498 0.970947
vt 0.250977 0.971436
vt 0.242188 0.976807
vt 0.240479 0.980957
vt 0.237793 0.971680
vt 0.254395 0.965332
vt 0.260498 0.962891
vt 0.253662 0.962402
vt 0.247314 0.966309
vt 0.241211 0.962646
vt 0.238770 0.965820
vt 0.234863 0.971436
vt 0.229980 0.962158
vt 0.224609 0.964844
vt 0.225830 0.972412
vt 0.220215 0.966309
vt 0.225830 0.976318
vt 0.222168 0.987549
vt 0.218994 0.986328
vt 0.229248 0.983398
vt 0.242188 0.986816
vt 0.228516 0.989990
vt 0.246582 0.990723
vt 0.240967 0.993896
vt 0.244385 0.992920
vt 0.929932 0.399170
vt 0.919434 0.396240
vt 0.921631 0.394531
vt 0.921631 0.391357
vt 0.937744 0.414795
vt 0.945068 0.398682
vt 0.916016 0.397217
vt 0.921875 0.406494
vt 0.915283 0.373047
vt 0.939941 0.387939
vt 0.924316 0.389893
vt 0.923584 0.383301
vt 0.925537 0.379150
vt 0.939697 0.375732
vt 0.923096 0.375977
vt 0.924561 0.369629
vt 0.919189 0.361572
vt 0.940186 0.369141
vt 0.922119 0.353760
vt 0.936523 0.364502
vt 0.942871 0.363281
vt 0.938477 0.361816
vt 0.137451 0.899414
vt 0.148438 0.900635
vt 0.140625 0.907715
vt 0.147705 0.912598
vt 0.159424 0.901611
vt 0.156738 0.906738
vt 0.145508 0.895020
vt 0.154785 0.894775
vt 0.149902 0.885742
vt 0.131104 0.887451
vt 0.134521 0.882080
vt 0.154785 0.884277
vt 0.148438 0.867920
vt 0.131592 0.876953
vt 0.155273 0.875000
vt 0.158936 0.885498
vt 0.162842 0.874268
vt 0.141357 0.858887
vt 0.143799 0.866699
vt 0.147217 0.861084
vt 0.152344 0.867920
vt 0.148193 0.858154
vt 0.156006 0.867676
vt 0.153320 0.860352
vt 0.159180 0.865479
vt 0.154297 0.859619
vt 0.158936 0.860596
vt 0.151123 0.851074
vt 0.161133 0.864014
vt 0.163086 0.867920
vt 0.176758 0.872559
vt 0.165771 0.865479
vt 0.163086 0.884277
vt 0.161377 0.893311
vt 0.165527 0.892822
vt 0.167480 0.904053
vt 0.159912 0.911377
vt 0.174561 0.897949
vt 0.182373 0.901855
vt 0.191650 0.889404
vt 0.179688 0.887939
vt 0.183594 0.884766
vt 0.197998 0.881104
vt 0.196045 0.866211
vt 0.183350 0.874023
vt 0.192383 0.864014
vt 0.184326 0.918213
vt 0.185547 0.913330
vt 0.190430 0.920654
vt 0.186035 0.922119
vt 0.181152 0.918457
vt 0.182617 0.925293
vt 0.189697 0.924805
vt 0.187744 0.926270
vt 0.199219 0.930420
vt 0.187012 0.932617
vt 0.186035 0.939453
vt 0.189941 0.940918
vt 0.196533 0.933594
vt 0.199463 0.927002
vt 0.208252 0.928467
vt 0.208984 0.933350
vt 0.191650 0.942627
vt 0.187256 0.946777
vt 0.199219 0.940430
vt 0.191650 0.948486
vt 0.186768 0.947998
vt 0.201172 0.944336
vt 0.211914 0.937988
vt 0.212158 0.943359
vt 0.182129 0.960205
vt 0.182861 0.949951
vt 0.184814 0.960938
vt 0.190918 0.953613
vt 0.186768 0.962158
vt 0.199463 0.951904
vt 0.198242 0.960205
vt 0.206055 0.953369
vt 0.217285 0.948730
vt 0.201416 0.960938
vt 0.211670 0.957275
vt 0.210938 0.960205
vt 0.203125 0.964600
vt 0.948486 0.596680
vt 0.959473 0.594238
vt 0.954590 0.598145
vt 0.957764 0.604492
vt 0.971191 0.607178
vt 0.973145 0.598877
vt 0.955078 0.612549
vt 0.939941 0.626709
vt 0.964111 0.615723
vt 0.973633 0.611816
vt 0.957031 0.629150
vt 0.946533 0.632568
vt 0.957764 0.636230
vt 0.970947 0.621582
vt 0.975098 0.620361
vt 0.772461 0.127197
vt 0.797852 0.125244
vt 0.788818 0.129639
vt 0.777588 0.135986
vt 0.765381 0.143311
vt 0.780273 0.142334
vt 0.785889 0.139160
vt 0.775635 0.154053
vt 0.764893 0.149658
vt 0.765869 0.164551
vt 0.785400 0.160645
vt 0.774170 0.161865
vt 0.770264 0.178223
vt 0.780762 0.173584
vt 0.791992 0.159180
vt 0.798340 0.169678
vt 0.800537 0.139648
vt 0.803467 0.156006
vt 0.815430 0.136963
vt 0.821777 0.125488
vt 0.812744 0.144287
vt 0.830078 0.135742
vt 0.835693 0.124268
vt 0.844482 0.135254
vt 0.842773 0.152832
vt 0.828613 0.139160
vt 0.825195 0.156738
vt 0.833984 0.170898
vt 0.842285 0.169678
vt 0.835938 0.178955
vt 0.821777 0.169434
vt 0.825195 0.177979
vt 0.825928 0.189941
vt 0.816650 0.181641
vt 0.814941 0.192871
vt 0.809326 0.166260
vt 0.812500 0.170410
vt 0.806396 0.177979
vt 0.806641 0.183838
vt 0.802979 0.194092
vt 0.795410 0.192139
vt 0.796875 0.181885
vt 0.786621 0.188965
vt 0.793213 0.176514
s 1
usemtl TreePack2
f 101/1/1 53/2/2 51/3/3
f 51/3/3 53/2/2 34/4/4
f 53/2/2 101/1/1 107/5/5
f 53/2/2 107/5/5 62/6/6
f 101/1/1 51/3/3 88/7/7
f 34/4/4 53/2/2 36/8/8
f 36/8/8 53/2/2 62/6/6
f 51/3/3 34/4/4 43/9/9
f 51/3/3 43/9/9 88/7/7
f 101/1/1 88/7/7 127/10/10
f 34/4/4 36/8/8 24/11/11
f 24/11/11 36/8/8 31/12/12
f 31/12/12 36/8/8 62/6/6
f 34/4/4 24/11/11 30/13/13
f 34/4/4 30/13/13 43/9/9
f 24/11/11 31/12/12 17/14/14
f 24/11/11 17/14/14 30/13/13
f 31/12/12 62/6/6 38/15/15
f 17/14/14 31/12/12 22/16/16
f 22/16/16 31/12/12 38/15/15
f 17/14/14 22/16/16 20/17/17
f 20/17/17 22/16/16 38/15/15
f 30/13/13 17/14/14 21/18/18
f 21/18/18 17/14/14 16/19/19
f 16/19/19 17/14/14 20/17/17
f 30/13/13 21/18/18 45/20/20
f 30/13/13 45/20/20 43/9/9
f 21/18/18 16/19/19 26/21/21
f 21/18/18 26/21/21 45/20/20
f 16/19/19 20/17/17 9/22/22
f 9/22/22 20/17/17 37/23/23
f 16/19/19 9/22/22 12/24/24
f 16/19/19 12/24/24 26/21/21
f 12/24/24 9/22/22 3/25/25
f 37/23/23 20/17/17 54/26/26
f 54/26/26 20/17/17 38/15/15
f 37/23/23 54/26/26 146/27/27
f 54/26/26 38/15/15 60/28/28
f 60/28/28 38/15/15 62/6/6
f 146/27/27 54/26/26 139/29/29
f 146/27/27 139/29/29 174/30/30
f 54/26/26 60/28/28 124/31/31
f 54/26/26 124/31/31 139/29/29
f 60/28/28 62/6/6 136/32/32
f 60/28/28 136/32/32 124/31/31
f 136/32/32 62/6/6 107/5/5
f 174/30/30 139/29/29 165/33/33
f 165/33/33 139/29/29 124/31/31
f 174/30/30 165/33/33 176/34/34
f 176/34/34 165/33/33 180/35/35
f 165/33/33 124/31/31 169/36/36
f 169/36/36 124/31/31 136/32/32
f 165/33/33 169/36/36 180/35/35
f 169/36/36 136/32/32 170/37/37
f 169/36/36 170/37/37 180/35/35
f 156/38/38 136/32/32 107/5/5
f 136/32/32 156/38/38 170/37/37
f 156/38/38 107/5/5 101/1/1
f 180/35/35 170/37/37 178/39/39
f 178/39/39 170/37/37 156/38/38
f 180/35/35 178/39/39 190/40/40
f 156/38/38 101/1/1 163/41/41
f 156/38/38 163/41/41 178/39/39
f 163/41/41 101/1/1 127/10/10
f 190/40/40 178/39/39 177/42/42
f 177/42/42 178/39/39 163/41/41
f 190/40/40 177/42/42 184/43/43
f 163/41/41 127/10/10 159/44/44
f 163/41/41 159/44/44 177/42/42
f 177/42/42 159/44/44 184/43/43
f 184/43/43 159/44/44 162/45/45
f 159/44/44 127/10/10 88/7/7
f 162/45/45 159/44/44 142/46/46
f 159/44/44 88/7/7 94/47/47
f 159/44/44 94/47/47 142/46/46
f 94/47/47 88/7/7 43/9/9
f 142/46/46 94/47/47 105/48/48
f 142/46/46 105/48/48 131/49/49
f 131/49/49 105/48/48 93/50/50
f 105/48/48 94/47/47 61/51/51
f 61/51/51 94/47/47 43/9/9
f 61/51/51 43/9/9 72/52/52
f 72/52/52 43/9/9 45/20/20
f 131/53/49 93/54/50 72/52/52
f 131/53/49 72/52/52 102/55/53
f 102/55/53 72/52/52 45/20/20
f 102/55/53 45/20/20 83/56/54
f 83/56/54 45/20/20 42/57/55
f 42/57/55 45/20/20 26/21/21
f 87/58/56 78/59/57 83/56/54
f 87/58/56 83/56/54 42/57/55
f 42/57/55 26/21/21 27/60/58
f 27/60/58 26/21/21 12/24/24
f 87/58/56 42/57/55 50/61/59
f 42/57/55 27/60/58 13/62/60
f 42/57/55 13/62/60 50/61/59
f 27/60/58 12/24/24 6/63/61
f 27/60/58 6/63/61 13/62/60
f 6/63/61 12/24/24 3/25/25
f 6/63/61 3/25/25 2/64/62
f 6/63/61 2/64/62 1/65/63
f 6/63/61 1/65/63 13/62/60
f 13/62/60 1/65/63 7/66/64
f 13/62/60 7/66/64 14/67/65
f 14/67/65 7/66/64 19/68/66
f 19/68/66 7/66/64 8/69/67
f 13/62/60 14/67/65 25/70/68
f 25/70/68 14/67/65 19/68/66
f 13/62/60 25/70/68 46/71/69
f 13/62/60 46/71/69 50/61/59
f 25/70/68 19/68/66 41/72/70
f 41/72/70 19/68/66 32/73/71
f 25/70/68 41/72/70 46/71/69
f 50/61/59 46/71/69 160/74/72
f 160/74/72 46/71/69 140/75/73
f 50/61/59 160/74/72 98/76/74
f 50/61/59 98/76/74 85/77/75
f 85/77/75 98/76/74 81/78/76
f 50/61/59 85/77/75 87/58/56
f 87/58/56 85/77/75 81/78/76
f 87/58/56 81/78/76 74/79/77
f 140/75/73 46/71/69 70/80/78
f 70/80/78 46/71/69 41/72/70
f 140/75/73 70/80/78 137/81/79
f 70/80/78 41/72/70 80/82/80
f 70/80/78 80/82/80 137/81/79
f 92/83/81 105/84/48 61/85/51
f 92/83/81 61/85/51 69/86/82
f 105/84/48 92/83/81 111/87/83
f 105/84/48 111/87/83 93/88/50
f 93/88/50 111/87/83 112/89/84
f 112/89/84 111/87/83 142/90/46
f 112/89/84 142/90/46 131/91/49
f 111/87/83 92/83/81 117/92/85
f 111/87/83 117/92/85 142/90/46
f 92/83/81 69/86/82 76/93/86
f 92/83/81 76/93/86 117/92/85
f 76/93/86 69/86/82 64/94/87
f 64/94/87 69/86/82 61/85/51
f 117/92/85 76/93/86 82/95/88
f 142/90/46 117/92/85 152/96/89
f 142/90/46 152/96/89 162/97/45
f 162/97/45 152/96/89 151/98/90
f 151/98/90 152/96/89 128/99/91
f 128/99/91 152/96/89 117/92/85
f 151/98/90 128/99/91 126/100/92
f 126/100/92 128/99/91 106/101/93
f 106/101/93 128/99/91 117/92/85
f 106/101/93 117/92/85 82/95/88
f 71/102/94 82/95/88 76/93/86
f 82/95/88 71/102/94 106/101/93
f 71/102/94 76/93/86 64/94/87
f 106/101/93 71/102/94 65/103/95
f 65/103/95 71/102/94 56/104/96
f 56/104/96 71/102/94 59/105/97
f 56/104/96 59/105/97 63/106/98
f 59/105/97 71/102/94 67/107/99
f 67/107/99 71/102/94 64/94/87
f 83/108/54 78/109/57 67/107/99
f 83/108/54 67/107/99 77/110/100
f 77/110/100 67/107/99 64/94/87
f 77/110/100 64/94/87 79/111/101
f 79/111/101 64/94/87 61/85/51
f 77/110/100 79/111/101 109/112/102
f 79/111/101 61/85/51 72/113/52
f 109/112/102 79/111/101 112/114/84
f 79/111/101 72/113/52 93/115/50
f 79/111/101 93/115/50 112/114/84
f 99/116/103 68/117/104 91/118/105
f 91/118/105 68/117/104 108/119/106
f 91/118/105 108/119/106 99/116/103
f 68/117/104 99/116/103 65/120/95
f 65/120/95 99/116/103 106/121/93
f 68/117/104 65/120/95 58/122/107
f 58/122/107 65/120/95 52/123/108
f 68/117/104 58/122/107 145/124/109
f 68/117/104 145/124/109 108/119/106
f 106/121/93 99/116/103 132/125/110
f 129/126/111 99/116/103 108/119/106
f 99/116/103 129/126/111 132/125/110
f 129/126/111 108/119/106 150/127/112
f 150/127/112 108/119/106 145/124/109
f 129/126/111 150/127/112 132/125/110
f 132/125/110 150/127/112 157/128/113
f 132/125/110 157/128/113 141/129/114
f 157/128/113 150/127/112 158/130/115
f 158/130/115 150/127/112 145/124/109
f 157/128/113 158/130/115 141/129/114
f 158/130/115 145/124/109 143/131/116
f 158/130/115 143/131/116 141/129/114
f 143/131/116 145/124/109 134/132/117
f 141/129/114 143/131/116 130/133/118
f 143/131/116 134/132/117 120/134/119
f 130/133/118 143/131/116 115/135/120
f 115/135/120 143/131/116 120/134/119
f 130/133/118 115/135/120 104/136/121
f 115/135/120 120/134/119 103/137/122
f 115/135/120 103/137/122 104/136/121
f 184/138/43 193/139/123 190/140/40
f 190/140/40 193/139/123 180/141/35
f 180/141/35 193/139/123 179/142/124
f 180/141/35 179/142/124 176/143/34
f 193/139/123 184/138/43 185/144/125
f 179/142/124 193/139/123 191/145/126
f 191/145/126 193/139/123 185/144/125
f 185/144/125 184/138/43 172/146/127
f 172/146/127 184/138/43 162/147/45
f 172/146/127 162/147/45 153/148/128
f 185/144/125 172/146/127 173/149/129
f 185/144/125 173/149/129 191/145/126
f 172/146/127 153/148/128 102/150/53
f 102/150/53 153/148/128 131/151/49
f 173/149/129 172/146/127 154/152/130
f 154/152/130 172/146/127 102/150/53
f 191/145/126 173/149/129 175/153/131
f 173/149/129 154/152/130 147/154/132
f 173/149/129 147/154/132 175/153/131
f 77/155/100 102/150/53 83/156/54
f 102/150/53 77/155/100 109/157/102
f 102/150/53 109/157/102 116/158/133
f 102/150/53 116/158/133 154/152/130
f 116/158/133 109/157/102 121/159/134
f 154/152/130 116/158/133 118/160/135
f 118/160/135 116/158/133 121/159/134
f 154/152/130 118/160/135 147/154/132
f 118/160/135 121/159/134 100/161/136
f 118/160/135 100/161/136 95/162/137
f 118/160/135 95/162/137 147/154/132
f 95/162/137 100/161/136 89/163/138
f 95/162/137 89/163/138 78/164/57
f 78/164/57 89/163/138 67/165/99
f 95/162/137 78/164/57 87/166/56
f 95/162/137 87/166/56 110/167/139
f 95/162/137 110/167/139 147/154/132
f 147/154/132 110/167/139 160/168/72
f 160/168/72 110/167/139 98/169/74
f 147/154/132 160/168/72 171/170/140
f 147/154/132 171/170/140 175/153/131
f 175/153/131 171/170/140 191/145/126
f 191/145/126 171/170/140 181/171/141
f 191/145/126 181/171/141 179/142/124
f 181/171/141 171/170/140 186/172/142
f 181/171/141 186/172/142 179/142/124
f 186/172/142 171/170/140 160/168/72
f 179/142/124 186/172/142 176/143/34
f 176/143/34 186/172/142 188/173/143
f 176/143/34 188/173/143 174/174/30
f 188/173/143 186/172/142 192/175/144
f 188/173/143 192/175/144 187/176/145
f 187/176/145 192/175/144 182/177/146
f 192/175/144 186/172/142 189/178/147
f 192/175/144 189/178/147 182/177/146
f 189/178/147 186/172/142 160/168/72
f 182/177/146 189/178/147 183/179/148
f 182/177/146 183/179/148 168/180/149
f 168/180/149 183/179/148 137/181/79
f 183/179/148 189/178/147 166/182/150
f 166/182/150 189/178/147 160/168/72
f 183/179/148 166/182/150 137/181/79
f 166/182/150 160/168/72 140/183/73
f 166/182/150 140/183/73 137/181/79
f 153/184/128 162/185/45 151/186/90
f 153/184/128 151/186/90 144/187/151
f 153/184/128 144/187/151 131/188/49
f 131/188/49 144/187/151 112/189/84
f 144/187/151 151/186/90 155/190/152
f 112/189/84 144/187/151 149/191/153
f 149/191/153 144/187/151 155/190/152
f 155/190/152 151/186/90 126/192/92
f 112/189/84 149/191/153 125/193/154
f 125/193/154 149/191/153 155/190/152
f 112/189/84 125/193/154 109/194/102
f 109/194/102 125/193/154 121/195/134
f 125/193/154 155/190/152 135/196/155
f 135/196/155 155/190/152 126/192/92
f 125/193/154 135/196/155 121/195/134
f 106/197/93 132/198/110 126/192/92
f 126/192/92 132/198/110 135/196/155
f 135/196/155 132/198/110 141/199/114
f 121/195/134 135/196/155 114/200/156
f 121/195/134 114/200/156 100/201/136
f 135/196/155 141/199/114 133/202/157
f 135/196/155 133/202/157 114/200/156
f 100/201/136 114/200/156 119/203/158
f 119/203/158 114/200/156 133/202/157
f 100/201/136 119/203/158 89/204/138
f 133/202/157 141/199/114 122/205/159
f 133/202/157 122/205/159 119/203/158
f 122/205/159 141/199/114 130/206/118
f 122/205/159 130/206/118 104/207/121
f 87/208/56 74/209/77 89/204/138
f 87/208/56 89/204/138 110/210/139
f 110/210/139 89/204/138 119/203/158
f 110/210/139 119/203/158 113/211/160
f 113/211/160 119/203/158 122/205/159
f 110/210/139 113/211/160 98/212/74
f 113/211/160 122/205/159 96/213/161
f 113/211/160 96/213/161 98/212/74
f 96/213/161 122/205/159 104/207/121
f 98/212/74 96/213/161 81/214/76
f 96/213/161 104/207/121 73/215/162
f 96/213/161 73/215/162 81/214/76
f 73/215/162 104/207/121 63/216/98
f 81/214/76 73/215/162 74/217/77
f 73/215/162 63/216/98 59/218/97
f 73/215/162 59/218/97 74/217/77
f 74/217/77 59/218/97 67/219/99
f 74/217/77 67/219/99 89/220/138
f 58/221/107 52/222/108 47/223/163
f 47/223/163 52/222/108 40/224/164
f 47/223/163 40/224/164 58/221/107
f 40/224/164 52/222/108 56/225/96
f 56/225/96 52/222/108 65/226/95
f 58/221/107 40/224/164 55/227/165
f 55/227/165 40/224/164 56/225/96
f 58/221/107 55/227/165 145/228/109
f 55/227/165 56/225/96 66/229/166
f 66/229/166 56/225/96 63/230/98
f 145/228/109 55/227/165 86/231/167
f 86/231/167 55/227/165 66/229/166
f 145/228/109 86/231/167 134/232/117
f 134/232/117 86/231/167 120/233/119
f 120/233/119 86/231/167 103/234/122
f 103/234/122 86/231/167 66/229/166
f 103/234/122 66/229/166 63/230/98
f 103/234/122 63/230/98 104/235/121
f 9/236/22 37/237/23 29/238/168
f 9/236/22 29/238/168 10/239/169
f 9/236/22 10/239/169 3/240/25
f 10/239/169 29/238/168 11/241/170
f 10/239/169 11/241/170 3/240/25
f 11/241/170 29/238/168 18/242/171
f 18/242/171 29/238/168 37/237/23
f 3/240/25 11/241/170 5/243/172
f 3/240/25 5/243/172 2/244/62
f 2/244/62 5/243/172 1/245/63
f 5/243/172 11/241/170 15/246/173
f 15/246/173 11/241/170 18/242/171
f 1/245/63 5/243/172 4/247/174
f 4/247/174 5/243/172 15/246/173
f 1/245/63 4/247/174 7/248/64
f 7/248/64 4/247/174 8/249/67
f 8/249/67 4/247/174 15/246/173
f 15/246/173 18/242/171 23/250/175
f 8/249/67 15/246/173 35/251/176
f 35/251/176 15/246/173 23/250/175
f 23/250/175 18/242/171 39/252/177
f 39/252/177 18/242/171 37/237/23
f 23/250/175 39/252/177 44/253/178
f 23/250/175 44/253/178 35/251/176
f 39/252/177 37/237/23 97/254/179
f 97/254/179 37/237/23 146/255/27
f 39/252/177 97/254/179 84/256/180
f 39/252/177 84/256/180 44/253/178
f 97/254/179 146/255/27 164/257/181
f 164/257/181 146/255/27 174/258/30
f 164/257/181 174/258/30 188/259/143
f 164/257/181 188/259/143 187/260/145
f 97/254/179 164/257/181 161/261/182
f 97/254/179 161/261/182 84/256/180
f 161/261/182 164/257/181 187/260/145
f 84/256/180 161/261/182 148/262/183
f 148/262/183 161/261/182 187/260/145
f 84/256/180 148/262/183 44/253/178
f 148/262/183 187/260/145 167/263/184
f 167/263/184 187/260/145 182/264/146
f 167/263/184 182/264/146 168/265/149
f 148/262/183 167/263/184 123/266/185
f 148/262/183 123/266/185 44/253/178
f 167/263/184 168/265/149 138/267/186
f 167/263/184 138/267/186 123/266/185
f 138/267/186 168/265/149 137/268/79
f 138/267/186 137/268/79 90/269/187
f 138/267/186 90/269/187 123/266/185
f 90/269/187 137/268/79 80/270/80
f 44/253/178 123/266/185 57/271/188
f 44/253/178 57/271/188 35/251/176
f 57/271/188 123/266/185 75/272/189
f 57/271/188 75/272/189 35/251/176
f 75/272/189 123/266/185 49/273/190
f 49/273/190 123/266/185 90/269/187
f 75/272/189 49/273/190 35/251/176
f 90/269/187 80/270/80 48/274/191
f 90/269/187 48/274/191 49/273/190
f 48/274/191 80/270/80 41/275/70
f 48/274/191 41/275/70 32/276/71
f 48/274/191 32/276/71 33/277/192
f 48/274/191 33/277/192 49/273/190
f 33/277/192 32/276/71 19/278/66
f 28/279/193 35/251/176 49/273/190
f 28/279/193 49/273/190 33/277/192
f 28/279/193 33/277/192 19/278/66
f 35/251/176 28/279/193 8/249/67
f 8/249/67 28/279/193 19/278/66
